<svg xmlns="http://www.w3.org/2000/svg" viewBox="0 0 96 96"><g data-name="Air Conditioning"><path fill="#70a2ff" d="M92,49.72H4A4,4,0,0,1,0,45.18l2.24-16a8.13,8.13,0,0,1,8.05-7H85.67a8.13,8.13,0,0,1,8,7l2.24,16A4,4,0,0,1,92,49.72Z"/><path fill="#9dc5ff" d="M83.61,49.72H12.39c-2,0-3.47-2.15-3.19-4.54l1.81-16c.46-4,3.24-7,6.52-7H78.47c3.28,0,6.06,3,6.52,7l1.81,16C87.08,47.57,85.57,49.72,83.61,49.72Z"/><path fill="#fff" d="M60.09,33.51a1.22,1.22,0,0,0-1.2-1.15H37.11a1.21,1.21,0,0,0-1.2,1.15h0a1.2,1.2,0,0,0,1.2,1.25H58.89A1.2,1.2,0,0,0,60.09,33.51Z"/><path fill="#485cb9" d="M93.18,32.59h0A1.17,1.17,0,0,0,92,33.92l.79,5.62a3.73,3.73,0,0,1-3.68,4.24H6.88A3.73,3.73,0,0,1,3.2,39.54L4,33.92a1.17,1.17,0,0,0-1.17-1.33h0a1.17,1.17,0,0,0-1.16,1L0,45.18A4,4,0,0,0,4,49.72H92A4,4,0,0,0,96,45.18L94.34,33.6A1.17,1.17,0,0,0,93.18,32.59Z"/><path fill="#6bacff" d="M87.8,49.72H8.2c1.09-7.1.91-7.38,1.74-8.92A6.05,6.05,0,0,1,13.4,38c1.4-.42-4-.28,67.42-.28a6,6,0,0,1,6,5.18Z"/><path fill="#4f629d" d="M40.84,49.72H8.21l1-6.81a6,6,0,0,1,6-5.17H33.87a6,6,0,0,1,6,5.17Z"/><path fill="#2c2b57" d="M12.57,46.17l.44-3a3.35,3.35,0,0,1,3.32-2.87H32.72a3.37,3.37,0,0,1,3.33,2.87l.43,3a.85.85,0,0,1-.84,1H13.41A.85.85,0,0,1,12.57,46.17Z"/><path fill="#4f629d" d="M87.88,49.72H55.24l1-6.81a6.06,6.06,0,0,1,6-5.17H80.91a6.05,6.05,0,0,1,6,5.17Z"/><path fill="#fff" d="M44.7,46.65a1.4,1.4,0,0,1-1.38-1.19c-.13-.91-.45-3.11-.44-3a1.4,1.4,0,0,1,1.37-1.64h7.59a1.4,1.4,0,0,1,1.37,1.64c0,.1-.46,3.11-.44,3a1.4,1.4,0,0,1-1.38,1.19Z"/><path fill="#4f629d" d="M87.88,49.72c-.12,0,0,.75-1.09-6.8a6.06,6.06,0,0,0-5.42-5.16,6,6,0,0,1,5.51,5.16Z"/><path fill="#d4e3ff" d="M78.48,22.14l-3.33,3.2a15.3,15.3,0,0,1-10.61,4.27H31.46a15.3,15.3,0,0,1-10.61-4.27l-3.33-3.2Z"/><path fill="#36447f" d="M11,42.85H38a9.44,9.44,0,0,1,.26,1.6H10.75A8,8,0,0,1,11,42.85Zm4.16-3.36H33.86a4.29,4.29,0,0,1,3.34,1.62H11.84A4.27,4.27,0,0,1,15.17,39.49ZM10.23,48l.26-1.77H38.55L38.81,48Zm29.25-6.35a6.06,6.06,0,0,0-5.61-3.88c-20.54,0-19.21-.1-20.47.28A6,6,0,0,0,9.94,40.8c-.73,1.37-.6,1.16-1.74,8.92H40.84C39.81,42.75,39.77,42.19,39.48,41.62Z"/><path fill="#2c2b57" d="M59.61,46.17l.43-3a3.37,3.37,0,0,1,3.33-2.87H79.76a3.35,3.35,0,0,1,3.32,2.87l.44,3a.85.85,0,0,1-.84,1H60.45A.85.85,0,0,1,59.61,46.17Z"/><path fill="#36447f" d="M58.05,42.85h27a9.44,9.44,0,0,1,.26,1.6H57.78A8.11,8.11,0,0,1,58.05,42.85Zm4.16-3.36H80.9a4.29,4.29,0,0,1,3.34,1.62H58.88A4.27,4.27,0,0,1,62.21,39.49ZM57.27,48l.26-1.77H85.59L85.85,48Zm29.25-6.35a6.06,6.06,0,0,0-5.62-3.88c-20.53,0-19.21-.1-20.46.28A6,6,0,0,0,57,40.8c-.74,1.37-.6,1.16-1.74,8.92H87.88C86.85,42.75,86.81,42.19,86.52,41.62Z"/><path fill="#43b6ff" d="M11 62.62a1 1 0 01-1-1V53.8a1 1 0 012.05 0v7.79A1 1 0 0111 62.62zM22.35 63.1a1 1 0 01-1-1V53.8a1 1 0 012.05 0v8.28A1 1 0 0122.35 63.1zM22.35 69.5a1 1 0 01-1-1V66.24a1 1 0 012.05 0v2.23A1 1 0 0122.35 69.5zM11 67.63a1 1 0 01-1-1v-.73a1 1 0 012.05 0v.73A1 1 0 0111 67.63zM22.35 80.21a1 1 0 01-1-1V72.82a1 1 0 012.05 0v6.37A1 1 0 0122.35 80.21zM33.75 78.33a1 1 0 01-1-1V74a1 1 0 112.05 0V77.3A1 1 0 0133.75 78.33zM28.05 65.29a1 1 0 01-1-1V53.8a1 1 0 012 0V64.27A1 1 0 0128.05 65.29zM39.45 58.34a1 1 0 01-1-1V53.8a1 1 0 012 0v3.52A1 1 0 0139.45 58.34zM12.43 80.21a5.25 5.25 0 110-10.5 1 1 0 010 2.05 3.2 3.2 0 103.2 3.2V65.51a1 1 0 012 0V75A5.26 5.26 0 0112.43 80.21zM38 72.12a5.25 5.25 0 01-5.25-5.24V53.8a1 1 0 012.05 0V66.88a3.2 3.2 0 103.2-3.2 1 1 0 110-2 5.25 5.25 0 010 10.49zM16.65 63.1a1 1 0 01-1-1v-.49a1 1 0 012 0v.49A1 1 0 0116.65 63.1zM16.65 59.21a1 1 0 01-1-1V57.7a1 1 0 012 0v.49A1 1 0 0116.65 59.21zM16.65 55.31a1 1 0 01-1-1V53.8a1 1 0 012 0v.49A1 1 0 0116.65 55.31zM28.05 80.21a1 1 0 01-1-1v-.61a1 1 0 012 0v.61A1 1 0 0128.05 80.21zM28.05 75.36a1 1 0 01-1-1v-.6a1 1 0 112 0v.6A1 1 0 0128.05 75.36zM28.05 70.52a1 1 0 01-1-1v-.6a1 1 0 012 0v.6A1 1 0 0128.05 70.52zM85.81 62.62a1 1 0 01-1-1V53.8a1 1 0 112 0v7.79A1 1 0 0185.81 62.62zM74.41 63.1a1 1 0 01-1-1V53.8a1 1 0 012 0v8.28A1 1 0 0174.41 63.1zM74.41 69.5a1 1 0 01-1-1V66.24a1 1 0 012 0v2.23A1 1 0 0174.41 69.5zM85.81 67.63a1 1 0 01-1-1v-.73a1 1 0 012 0v.73A1 1 0 0185.81 67.63zM74.41 80.21a1 1 0 01-1-1V72.82a1 1 0 012 0v6.37A1 1 0 0174.41 80.21zM63 78.33a1 1 0 01-1-1V74A1 1 0 1164 74V77.3A1 1 0 0163 78.33zM68.71 65.29a1 1 0 01-1-1V53.8a1 1 0 012 0V64.27A1 1 0 0168.71 65.29zM57.31 58.34a1 1 0 01-1-1V53.8a1 1 0 012.05 0v3.52A1 1 0 0157.31 58.34zM84.33 80.21A5.25 5.25 0 0179.09 75V65.51a1 1 0 112 0V75a3.2 3.2 0 103.2-3.2 1 1 0 010-2.05 5.25 5.25 0 010 10.5zM58.79 72.12a5.25 5.25 0 110-10.49 1 1 0 010 2 3.2 3.2 0 103.2 3.2V53.8a1 1 0 012.05 0V66.88A5.25 5.25 0 0158.79 72.12zM80.11 63.1a1 1 0 01-1-1v-.49a1 1 0 112 0v.49A1 1 0 0180.11 63.1zM80.11 59.21a1 1 0 01-1-1V57.7a1 1 0 112 0v.49A1 1 0 0180.11 59.21zM80.11 55.31a1 1 0 01-1-1V53.8a1 1 0 012 0v.49A1 1 0 0180.11 55.31zM68.71 80.21a1 1 0 01-1-1v-.61a1 1 0 012 0v.61A1 1 0 0168.71 80.21zM68.71 75.36a1 1 0 01-1-1v-.6a1 1 0 112 0v.6A1 1 0 0168.71 75.36zM68.71 70.52a1 1 0 01-1-1v-.6a1 1 0 012 0v.6A1 1 0 0168.71 70.52z"/><path fill="#6bacff" d="M59.42,22.14a3.74,3.74,0,0,1-3.74,3.74H40.32a3.74,3.74,0,0,1-3.74-3.74Z"/></g></svg>