<svg xmlns="http://www.w3.org/2000/svg" viewBox="0 0 64 64"><g data-name="02-Beach"><path fill="#68b1fc" d="M3,39H4c3,0,4,2,7,2s4-2,7-2,4,2,7,2,4-2,7-2,4,2,7,2,4-2,7-2,4,2,7,2,4-2,7-2h1V53H3Z"/><path fill="#539ffb" d="M3,45H4c3,0,4,2,7,2s4-2,7-2,4,2,7,2,4-2,7-2,4,2,7,2,4-2,7-2,4,2,7,2,4-2,7-2h1v8H3Z"/><path fill="#fdd5a6" d="M3,35H6.48a16,16,0,0,1,9.86,3.4L29.57,48.75A20,20,0,0,0,41.9,53H61v8H3Z"/><path fill="#b38051" d="M17,53c8-11,4-27,4-27H17s2,13-7,21a4.37,4.37,0,0,0,2,5C15,54,17,53,17,53Z"/><path fill="#20d665" d="M15,18S15,7,26,5c0,0-5,7-3,13Z"/><path fill="#31e170" d="M20,21.59c-1-9-10-12-16-10,0,0,8,4,10,10Z"/><path fill="#31e170" d="M18,21.59c1-9,10-12,16-10,0,0-8,4-10,10Z"/><path fill="#59e78b" d="M19 22c-8-6-15-2-16 5 0 0 6-4 16-3h0zM19 22c8-6 15-2 16 5 0 0-6-4-16-3h0z"/><circle cx="16" cy="25" r="3" fill="#fcaa52"/><circle cx="22" cy="25" r="3" fill="#fcb860"/><circle cx="19" cy="20" r="3" fill="#fcc67c"/><circle cx="51" cy="13" r="4" fill="#fcb860"/><path d="M61,38H60a8.19,8.19,0,0,0-4,1.11,5.67,5.67,0,0,1-6.1,0,7.58,7.58,0,0,0-7.9,0,5.67,5.67,0,0,1-6.1,0A8.19,8.19,0,0,0,32,38a8.19,8.19,0,0,0-3.95,1.11A6.27,6.27,0,0,1,25,40a5.25,5.25,0,0,1-2.21-.49,45.71,45.71,0,0,0-.24-10.57A4,4,0,0,0,26,25.1a22.36,22.36,0,0,1,8.46,2.73A1,1,0,0,0,35,28a1,1,0,0,0,1-1.14,10.16,10.16,0,0,0-5-7.71,8.92,8.92,0,0,0-3.76-1,26.63,26.63,0,0,1,7.24-5.62,1,1,0,0,0-.13-1.85,14.13,14.13,0,0,0-10.25.75,21.79,21.79,0,0,1,2.74-5.81,1,1,0,0,0-1-1.56,13.37,13.37,0,0,0-10.49,8.14A14.08,14.08,0,0,0,3.68,10.64a1,1,0,0,0-.13,1.85,26.63,26.63,0,0,1,7.24,5.62,8.92,8.92,0,0,0-3.76,1,10.16,10.16,0,0,0-5,7.71,1,1,0,0,0,.45,1A1,1,0,0,0,3,28a1,1,0,0,0,.55-.17A22.36,22.36,0,0,1,12,25.1,4,4,0,0,0,16,29l.18,0a27.59,27.59,0,0,1-.95,7.46A16.83,16.83,0,0,0,6.48,34H3a1,1,0,0,0-1,1V61a1,1,0,0,0,1,1H61a1,1,0,0,0,1-1V39A1,1,0,0,0,61,38ZM60,52H41.9a19,19,0,0,1-11.71-4l-1.32-1,.08,0A6.27,6.27,0,0,1,32,46a6.27,6.27,0,0,1,3,.89,7.58,7.58,0,0,0,7.9,0,5.67,5.67,0,0,1,6.1,0,7.58,7.58,0,0,0,7.9,0A6.27,6.27,0,0,1,60,46ZM25,42A8.19,8.19,0,0,0,29,40.89,6.27,6.27,0,0,1,32,40a6.27,6.27,0,0,1,3,.89,7.58,7.58,0,0,0,7.9,0,5.67,5.67,0,0,1,6.1,0,7.58,7.58,0,0,0,7.9,0A6.27,6.27,0,0,1,60,40v4a8.19,8.19,0,0,0-4,1.11,5.67,5.67,0,0,1-6.1,0,7.58,7.58,0,0,0-7.9,0,5.67,5.67,0,0,1-6.1,0A8.19,8.19,0,0,0,32,44a8.19,8.19,0,0,0-3.95,1.11c-.32.16-.63.3-.95.44l-4.64-3.63c0-.13.05-.25.07-.38A6.71,6.71,0,0,0,25,42ZM22,27a2,2,0,1,1,2-2A2,2,0,0,1,22,27Zm-3-9a2,2,0,1,1-2,2A2,2,0,0,1,19,18Zm14.5,7.1a27.27,27.27,0,0,0-8-2.07,4,4,0,0,0-2.63-1.94,1.52,1.52,0,0,0,.06-.2,8.19,8.19,0,0,1,7.13,0A7.63,7.63,0,0,1,33.5,25.1ZM31.26,12a24,24,0,0,0-6.69,6.26,11,11,0,0,0-1.78.48,4,4,0,0,0-1.87-2.27A11.48,11.48,0,0,1,31.26,12ZM23.88,6.6a20.73,20.73,0,0,0-2.17,6.24,11.85,11.85,0,0,0-2.71,3,12.28,12.28,0,0,0-2-2.38A11.29,11.29,0,0,1,23.88,6.6ZM6.74,12a11.47,11.47,0,0,1,10.34,4.47,4,4,0,0,0-1.87,2.27,11,11,0,0,0-1.78-.48A24.11,24.11,0,0,0,6.74,12ZM8,20.91a8.19,8.19,0,0,1,7.13,0,1.52,1.52,0,0,0,.06.2A4,4,0,0,0,12.54,23a27.27,27.27,0,0,0-8,2.07A7.63,7.63,0,0,1,8,20.91ZM14,25a2,2,0,1,1,2,2A2,2,0,0,1,14,25Zm5,2.62a4.11,4.11,0,0,0,1.49,1.08c.74,4.81,1.52,15.46-4.12,23.46a5,5,0,0,1-3.83-1,3.34,3.34,0,0,1-1.65-3.62c6.75-6.18,7.4-15,7.29-19.19A3.8,3.8,0,0,0,19,27.62ZM60,60H4V36H6.48a14.92,14.92,0,0,1,8.12,2.41,19.37,19.37,0,0,1-5.26,7.84,1.06,1.06,0,0,0-.29.43,5.37,5.37,0,0,0,2.41,6.16,7.77,7.77,0,0,0,4.21,1.38,4.21,4.21,0,0,0,1.76-.32,1,1,0,0,0,.38-.31A26.35,26.35,0,0,0,22,44.11L29,49.54A21.1,21.1,0,0,0,41.9,54H60ZM51,18a5,5,0,1,0-5-5A5,5,0,0,0,51,18Zm0-8a3,3,0,1,1-3,3A3,3,0,0,1,51,10ZM50,5V3a1,1,0,0,1,2,0V5a1,1,0,0,1-2,0Zm1,15a1,1,0,0,1,1,1v2a1,1,0,0,1-2,0V21A1,1,0,0,1,51,20Zm8-8h2a1,1,0,0,1,0,2H59a1,1,0,0,1,0-2ZM40,13a1,1,0,0,1,1-1h2a1,1,0,0,1,0,2H41A1,1,0,0,1,40,13ZM56,8.05a1,1,0,0,1,0-1.41l1.41-1.42a1,1,0,1,1,1.42,1.42L57.36,8.05a1,1,0,0,1-.7.29A1,1,0,0,1,56,8.05ZM46.05,18a1,1,0,0,1,0,1.41l-1.41,1.42a1,1,0,0,1-.71.29,1,1,0,0,1-.71-.29,1,1,0,0,1,0-1.42L44.64,18A1,1,0,0,1,46.05,18Zm12.73,1.41a1,1,0,0,1,0,1.42,1,1,0,0,1-.71.29,1,1,0,0,1-.71-.29L56,19.36A1,1,0,0,1,57.36,18ZM43.22,6.64a1,1,0,0,1,1.42-1.42l1.41,1.42a1,1,0,0,1,0,1.41,1,1,0,0,1-.71.29,1,1,0,0,1-.7-.29Z"/></g></svg>