<svg xmlns="http://www.w3.org/2000/svg" viewBox="0 0 128 128"><path fill="#ffc960" d="M5.41 123H79l34-26 12-21h-11c-3 13-13 21-28 17l-20 16H37c-5 5-15 8-22 5l-9.91 8.11a.5.5 0 0 0 .32.89Z"/><path fill="#74aaff" d="M93.5 55A19.5 19.5 0 1 0 113 74.5 19.5 19.5 0 0 0 93.5 55zm0 33A13.5 13.5 0 1 1 107 74.5 13.5 13.5 0 0 1 93.5 88zm-71-12A19.5 19.5 0 1 0 42 95.5 19.5 19.5 0 0 0 22.5 76zm0 33A13.5 13.5 0 1 1 36 95.5 13.5 13.5 0 0 1 22.5 109z"/><path fill="#ff5f5f" d="M51.55 12.86c0-.17 0-.33-.07-.5a6.5 6.5 0 1 0-12.78 2.35c0 .17.07.33.12.49Z"/><path fill="#d5e1ef" d="m53.51 97.67-7.79-1.16a3.06 3.06 0 0 1 .9-6.05l7.79 1.16a3.06 3.06 0 0 1-.9 6.05Z"/><path fill="#ffaa4c" d="m92.08 94.73-4.97-1.18L66.23 110H37l-2 4h32.62l24.46-19.27z"/><path fill="#ffaa4c" d="M93.5 94a19.39 19.39 0 0 1-8.11-1.78c-2.78 2.79-4.06 5.65-3 7.61 1.67 3.24 8.91 2.8 16.18-1 7-3.63 11.43-9 10.28-12.3A19.45 19.45 0 0 1 93.5 94Z"/><path fill="#ffbfb4" d="m67.38 34.645 4.743-.871 1.08 5.88-4.743.871zM40.39 14.59l-.1 3.41c0 1.18.68 3.64 1.71 4v2l5 1 1-3a8.63 8.63 0 0 0 2-4l-.47-4.92Z"/><path fill="#c5d5f0" d="m49.69 37.64 8.47 5.45L68 41l-2-7-7 2-13.48-10.45a5 5 0 0 0-7 1.74L28.7 45.64C28.21 46.57 27 50 28 51h14Z"/><path fill="#e23b3b" d="m32.88 59.87 8.74 7.27A9.39 9.39 0 0 1 45 74.35V90l8 1V68.93a9.38 9.38 0 0 0-2-5.81l-8.6-10.89L28 50.71a13.61 13.61 0 0 0 4.88 9.16Z"/><path fill="#ff5f5f" d="M53 90.63v-21.7a9.38 9.38 0 0 0-2-5.81l-8.6-10.89-11-1.15a13.72 13.72 0 0 0 4.45 6.79L44.19 65A11 11 0 0 1 48 73.35V90Z"/><path fill="#dce6f6" d="m67 42-1-7-5.15.7-14.43-9.56a4.81 4.81 0 0 0-4.17 2.51L32.46 47a13.15 13.15 0 0 0-1.12 2.89L42 51l7-13 9 5Z"/><path fill="#ffaa4c" d="M39 109h-1.46a19.41 19.41 0 0 1-13.32 6 17.49 17.49 0 0 1-9.22-1l-9.91 8.11a.5.5 0 0 0 .32.89h15.43a60.3 60.3 0 0 0 7.68-3.14C34.56 116.72 38.7 112.27 39 109Z"/><path fill="none" stroke="#252d32" stroke-linecap="round" stroke-linejoin="round" stroke-width="2" d="M54.22 79.82A7 7 0 0 1 58.3 93"/><circle cx="93.5" cy="74.5" r="20" fill="none" stroke="#252d32" stroke-linecap="round" stroke-linejoin="round" stroke-width="3" transform="rotate(-15 93.505 74.516)"/><path fill="none" stroke="#252d32" stroke-linecap="round" stroke-linejoin="round" stroke-width="3" d="M93.44 74.23 73.5 40.5M47.5 58.5l27.54-13.36M21.1 93.53 38.5 65.5"/><path fill="none" stroke="#252d32" stroke-linecap="round" stroke-linejoin="round" stroke-width="2" d="m22.89 91.94 21.84-9.2M41.4 94.13l-18.44 2.22"/><circle cx="22" cy="95" r="3" fill="#252d32" transform="rotate(-15 21.995 95.006)"/><circle cx="94" cy="75" r="3" fill="#252d32" transform="rotate(-15 93.982 75.004)"/><path fill="none" stroke="#252d32" stroke-linecap="round" stroke-linejoin="round" stroke-width="3" d="m61.5 82.5 15-36"/><rect width="14.07" height="6.42" x="43.16" y="90.64" fill="none" stroke="#252d32" stroke-linecap="round" stroke-linejoin="round" stroke-width="3" rx="3" ry="3" transform="rotate(7.1 50.156 93.813)"/><path fill="none" stroke="#252d32" stroke-linecap="round" stroke-linejoin="round" stroke-width="2" d="m5 122 8.73-7.65M37 109h29.16l20.32-16.05M115 76h10"/><path fill="none" stroke="#252d32" stroke-linecap="round" stroke-linejoin="round" stroke-width="3" d="M42.09 95.1A19.79 19.79 0 1 1 38.68 84"/><path fill="none" stroke="#252d32" stroke-linecap="round" stroke-linejoin="round" stroke-width="2" d="m40.5 14.67-.2 2.78a4.81 4.81 0 0 0 1.84 4.15l.08 2.55M47 26l.48-4a4.81 4.81 0 0 0 2.42-3.84l.23-3.2a4.76 4.76 0 0 0-.13-1.63"/><path fill="none" stroke="#252d32" stroke-linecap="round" stroke-linejoin="round" stroke-width="3" d="M52.5 90.5V68.93a9.39 9.39 0 0 0-2-5.81l-8.6-10.89L49 37.86 57.64 43a2.56 2.56 0 0 0 1.84.3l11.32-2.2a3.8 3.8 0 0 0 2.84-4.69 4 4 0 0 0-4.93-2.69l-8.26 1.57a2.3 2.3 0 0 1-1.78-.34L46 25.7a5 5 0 0 0-7 1.6L28.83 45.46c-2.26 4.06-.12 11.36 3.55 14.41l8.74 7.27a9.39 9.39 0 0 1 3.38 7.21V89.5M66.5 34.5l1 6M29.25 50.7l11.84 1.07"/><path fill="none" stroke="#252d32" stroke-linecap="round" stroke-linejoin="round" stroke-width="2" d="m51.46 13.12-12.71 1.8a6.42 6.42 0 0 1 12.71-1.8ZM44.15 14.95l3.02 6.06"/></svg>