<?xml version="1.0" encoding="UTF-8"?>
<svg xmlns="http://www.w3.org/2000/svg" xmlns:xlink="http://www.w3.org/1999/xlink" width="35px" height="35px" viewBox="0 0 35 35" version="1.1">
<g id="surface1">
<path style="fill-rule:nonzero;fill:rgb(100%,100%,100%);fill-opacity:1;stroke-width:1.152;stroke-linecap:butt;stroke-linejoin:miter;stroke:rgb(0%,0%,0%);stroke-opacity:1;stroke-miterlimit:4;" d="M 35.748214 28.001786 C 38.030357 28.001786 39.889286 29.791071 39.996429 32.041071 L 40.001786 32.25 L 40.001786 33 C 40.001786 36.755357 38.057143 39.567857 35.078571 41.378571 C 32.153571 43.1625 28.216071 43.998214 24 43.998214 C 19.783929 43.998214 15.846429 43.1625 12.921429 41.378571 C 10.033929 39.621429 8.116071 36.926786 8.003571 33.3375 L 7.998214 33 L 7.998214 32.25 C 7.998214 29.967857 9.792857 28.114286 12.042857 28.007143 L 12.251786 28.001786 Z M 24 4.001786 C 29.523214 4.001786 34.001786 8.475 34.001786 13.998214 C 34.001786 19.521429 29.523214 24 24 24 C 18.476786 24 13.998214 19.521429 13.998214 13.998214 C 13.998214 8.475 18.476786 4.001786 24 4.001786 Z M 24 4.001786 " transform="matrix(0.729167,0,0,0.729167,0,0)"/>
</g>
</svg>
