<svg xmlns="http://www.w3.org/2000/svg" viewBox="0 0 512 512"><g data-name="2. Safari"><polygon fill="#e0c3aa" points="216 232 216 144 168 144 168 272 280 272 280 232 216 232"/><path d="M280,280H168a8,8,0,0,1-8-8V144a8,8,0,0,1,8-8h48a8,8,0,0,1,8,8v80h56a8,8,0,0,1,8,8v40A8,8,0,0,1,280,280ZM176,264h96V240H216a8,8,0,0,1-8-8V152H176Z"/><rect width="456" height="32" x="48" y="336" fill="#dcdcdc"/><path d="M504,376H112a8,8,0,0,1,0-16H496V344H56v16H72a8,8,0,0,1,0,16H48a8,8,0,0,1-8-8V336a8,8,0,0,1,8-8H504a8,8,0,0,1,8,8v32A8,8,0,0,1,504,376Z"/><path fill="#b1da7a" d="M56,336V192H168l32,80H360V192l121.87,14.34A16,16,0,0,1,496,222.23V336Z"/><rect width="440" height="24" x="56" y="312" fill="#96bf5b"/><path d="M496,344H56a8,8,0,0,1-8-8V192a8,8,0,0,1,8-8H168a8,8,0,0,1,7.43,5l30,75H280a8,8,0,0,1,0,16H200a8,8,0,0,1-7.43-5l-30-75H64V328H488V222.23a8,8,0,0,0-7.06-7.95L368,201v71a8,8,0,0,1-8,8H312a8,8,0,0,1,0-16h40V192a8,8,0,0,1,8.93-7.95L482.8,198.39A24,24,0,0,1,504,222.23V336A8,8,0,0,1,496,344Z"/><path d="M360,200a8,8,0,0,1-6.32-3.09l-56-72a8,8,0,0,1,12.62-9.82l56,72A8,8,0,0,1,360,200Z"/><path fill="#ead590" d="M480,288h24V240H480a24,24,0,0,0,0,48Z"/><path fill="#f1cb66" d="M459.22,252A24,24,0,0,0,480,288h24V264H480A24,24,0,0,1,459.22,252Z"/><path d="M504,296H480a32,32,0,0,1,0-64h24a8,8,0,0,1,8,8v48A8,8,0,0,1,504,296Zm-24-48a16,16,0,0,0,0,32h16V248Z"/><circle cx="160" cy="352" r="56" fill="#596060"/><path fill="#4c5657" d="M160,384a56,56,0,0,1-54.7-44,56,56,0,1,0,109.4,0A56,56,0,0,1,160,384Z"/><path d="M160,416a64,64,0,1,1,64-64A64.07,64.07,0,0,1,160,416Zm0-112a48,48,0,1,0,48,48A48.05,48.05,0,0,0,160,304Z"/><circle cx="160" cy="352" r="16" fill="#dcdcdc"/><path d="M160,376a24,24,0,1,1,24-24A24,24,0,0,1,160,376Zm0-32a8,8,0,1,0,8,8A8,8,0,0,0,160,344Z"/><circle cx="408" cy="352" r="56" fill="#596060"/><path fill="#4c5657" d="M408,384a56,56,0,0,1-54.7-44,56,56,0,1,0,109.4,0A56,56,0,0,1,408,384Z"/><path d="M408,416a64,64,0,1,1,64-64A64.07,64.07,0,0,1,408,416Zm0-112a48,48,0,1,0,48,48A48.05,48.05,0,0,0,408,304Z"/><circle cx="408" cy="352" r="16" fill="#dcdcdc"/><path d="M408,376a24,24,0,1,1,24-24A24,24,0,0,1,408,376Zm0-32a8,8,0,1,0,8,8A8,8,0,0,0,408,344Z"/><rect width="48" height="120" x="8" y="160" fill="#596060"/><rect width="48" height="24" x="8" y="256" fill="#4c5657"/><path d="M56,288H8a8,8,0,0,1-8-8V160a8,8,0,0,1,8-8H56a8,8,0,0,1,8,8V280A8,8,0,0,1,56,288ZM16,272H48V168H16Z"/><rect width="32" height="88" x="136" y="104" fill="#596060"/><path d="M168,200H136a8,8,0,0,1-8-8V104a8,8,0,0,1,8-8h32a8,8,0,0,1,8,8v88A8,8,0,0,1,168,200Zm-24-16h16V112H144Z"/><path d="M56,200a8,8,0,0,1-5.66-13.66l80-80a8,8,0,0,1,11.32,11.32l-80,80A8,8,0,0,1,56,200Z"/><path fill="#cd4f5f" d="M72,248H56v32H72a16,16,0,0,0,0-32Z"/><path d="M72,288H56a8,8,0,0,1-8-8V248a8,8,0,0,1,8-8H72a24,24,0,0,1,0,48Zm-8-16h8a8,8,0,0,0,0-16H64Z"/></g></svg>