<svg xmlns="http://www.w3.org/2000/svg" viewBox="0 0 340 340"><path fill="#cce3ff" d="M10,128.963V52.51s37.321-10.229,87.593-2.249a183.5,183.5,0,0,0,60.255-.723,284.839,284.839,0,0,1,112.322,3.5,118.824,118.824,0,0,0,59.448-1.325L330,51.6v76.59Z"/><path fill="#6997e0" d="M10,102.428s27.893-6.572,69.342,3.628a207.771,207.771,0,0,0,54.711,6.163c20.715-.5,47.473-2.651,72.388-9.163a158.768,158.768,0,0,1,46.543-5.313c.444.018.892.037,1.341.059a197.078,197.078,0,0,0,42.388-2.5A127.934,127.934,0,0,1,330,93.806V312.378H10Z"/><path fill="#f9bedf" d="M250.461,256.283a35.189,35.189,0,0,0-30.731-31.018l-10.529-1.28a13.151,13.151,0,0,1-11.527-12.029c-.657-8.4-1.516-20.313-1.967-30.407l-20.37,3.115-20.37-3.115c-.451,10.094-1.31,22.006-1.967,30.407a13.151,13.151,0,0,1-11.528,12.029l-10.528,1.28a35.189,35.189,0,0,0-30.731,31.018A458.952,458.952,0,0,0,98,312.378H252.67A458.952,458.952,0,0,0,250.461,256.283Z"/><path fill="#e589ad" d="M129.361 143.787h18.169a0 0 0 0 1 0 0v25.5a0 0 0 0 1 0 0H129.361a12.75 12.75 0 0 1-12.75-12.75v0A12.75 12.75 0 0 1 129.361 143.787zM175.337 184.664l-20.37-3.115c-.445 9.959-1.287 21.681-1.94 30.061l44.431-2.448c-.619-8.123-1.348-18.59-1.751-27.613z"/><path fill="#f9bedf" d="M135.643,146.023s-5.23,48.585,39.368,48.585h40.86v-58.8Z"/><path fill="#e589ad" d="M136.241,160.768a22.584,22.584,0,0,0,20.059-3.13c4.782-3.4,11.6-5.346,18.711-5.346s13.929,1.948,18.711,5.346a22.609,22.609,0,0,0,22.149,2.347V135.808l-80.228,10.215A62.525,62.525,0,0,0,136.241,160.768Z"/><path fill="#313847" d="M200.112,184.8a10.139,10.139,0,0,1-9.257-3.836,15.573,15.573,0,0,0-12.527-5.911,14.28,14.28,0,0,0-13.346,10.81,18.913,18.913,0,0,0,.625,11.982c1.648,4.1,5.232,8.876,12.987,8.876h23.294a33.2,33.2,0,0,0,33.2-32.854l1.458-140.228a5.949,5.949,0,0,0-5.949-6.012H218.47a5.95,5.95,0,0,0-5.948,5.812L209.2,176.645A10.49,10.49,0,0,1,200.112,184.8Z"/><path fill="#ff9d78" d="M131.781,126.82s-19.718-33.769,12.775-49.967l5.832,7.962s15.552-15.924,35.825-17.3a72.773,72.773,0,0,1,0,14.276s18.607-7.138,33.6-8.785a42.716,42.716,0,0,1,.308,19.089,17.834,17.834,0,0,0,.616,9.916c1.806,5.253,3.155,14.475-2.59,26.178Z"/><path fill="#c5dfff" d="M208.838,121.6H141.184a11.6,11.6,0,0,0-11.6,11.6v6.167q0,.534.029,1.049c.611,11.044,13.474,16.75,22.491,10.343,11.443-8.131,34.373-8.131,45.816,0,9.017,6.407,21.88.7,22.491-10.343q.029-.515.029-1.049V133.2A11.6,11.6,0,0,0,208.838,121.6Z"/><path fill="#b7dfff" d="M20 162.158v22.664a3.49 3.49 0 0 0 4.491 3.341 42.651 42.651 0 0 0 15.918-8.609s26.009 25.536 54.409.019a11.469 11.469 0 0 0-1.193-18.04c-10.935-7.4-30.07-14.392-52.845 2.807 0 0-8.3-4.425-16.773-5.635A3.5 3.5 0 0 0 20 162.158zM320 120.034V142.7a3.491 3.491 0 0 1-4.491 3.341 42.641 42.641 0 0 1-15.918-8.61s-26.009 25.537-54.409.02a11.469 11.469 0 0 1 1.193-18.04c10.935-7.4 30.07-14.392 52.845 2.806 0 0 8.3-4.425 16.773-5.634A3.5 3.5 0 0 1 320 120.034z"/><circle cx="60.122" cy="249.114" r="12.204" fill="#fff"/><circle cx="84.136" cy="217.225" r="10.236" fill="#fff"/><circle cx="285.703" cy="266.134" r="15.354" fill="#fff"/><circle cx="285.057" cy="211.162" r="9.374" fill="#fff"/><path fill="#e589ad" d="M165.477 301.53c-15.187 0-24.188-6.7-24.563-6.981a4 4 0 0 1 4.818-6.386c.164.12 7.472 5.367 19.745 5.367a4 4 0 0 1 0 8zM187.962 301.16a13 13 0 0 1-12.538-9.615c-1.444-5.4-2.175-12.44-2.175-20.925a4 4 0 0 1 8 0c0 7.788.641 14.134 1.9 18.862a4.982 4.982 0 0 0 5.466 3.635 50.97 50.97 0 0 0 16.744-5.23 4 4 0 1 1 3.961 6.951 58.834 58.834 0 0 1-19.649 6.208A13.046 13.046 0 0 1 187.962 301.16zM175.046 244.8a10.627 10.627 0 0 1-6.026-1.863l-1.283-.879a4 4 0 1 1 4.526-6.6l1.281.879a2.679 2.679 0 0 0 3.377-.29 88.452 88.452 0 0 0 7.324-8.014 4 4 0 1 1 6.248 5 97.032 97.032 0 0 1-7.987 8.743A10.676 10.676 0 0 1 175.046 244.8z"/><path fill="#92b9ff" d="M76.3 175.088a4.047 4.047 0 0 1-.78-.08 3.832 3.832 0 0 1-.75-.23 3.569 3.569 0 0 1-.69-.369 3.614 3.614 0 0 1-.61-.491 4.919 4.919 0 0 1-.5-.61 5.763 5.763 0 0 1-.37-.689 4.985 4.985 0 0 1-.22-.75 3.4 3.4 0 0 1-.08-.781 4.042 4.042 0 0 1 1.17-2.83 4.008 4.008 0 0 1 5.66 0 4 4 0 0 1-2.83 6.83zM263.7 132.958a3.995 3.995 0 1 1 2.83-1.17 4.161 4.161 0 0 1-.61.5 4 4 0 0 1-1.441.6A4.032 4.032 0 0 1 263.7 132.958z"/><path fill="#e589ad" d="M128.035 312.378V277.54a22.13 22.13 0 0 0-1.629-8.356l-1.845-4.553a4 4 0 0 0-7.415 3.006l1.846 4.553a14.152 14.152 0 0 1 1.043 5.35v34.838zM230.639 312.378V277.54a14.152 14.152 0 0 1 1.043-5.35l1.845-4.553a4 4 0 0 0-7.414-3.006l-1.845 4.553a22.13 22.13 0 0 0-1.629 8.356v34.838z"/><path fill="#fff" d="M175.011 121.6H157.98l-25.916 25.916a14.444 14.444 0 0 0 15.014 5.529L178.523 121.6zM208.838 121.6H196.994l-23.077 23.078a52.385 52.385 0 0 1 10.953.911L208.858 121.6z"/><path fill="#313847" d="M209.666,127.182a5.637,5.637,0,0,1,5.63,5.631v6.715c0,.256-.006.507-.02.755-.272,4.917-4.535,7.571-8.407,7.571a8.663,8.663,0,0,1-5.038-1.628c-7.2-5.117-16.725-7.934-26.82-7.934s-19.62,2.817-26.82,7.934a8.663,8.663,0,0,1-5.039,1.628c-3.872,0-8.134-2.654-8.406-7.571-.014-.247-.021-.5-.021-.755v-6.715a5.637,5.637,0,0,1,5.631-5.631h69.31Zm0-7h-69.31a12.632,12.632,0,0,0-12.631,12.631v6.715c0,.388.011.768.032,1.142a15.158,15.158,0,0,0,15.395,14.184,15.606,15.606,0,0,0,9.094-2.922c6.23-4.427,14.5-6.64,22.765-6.64s16.535,2.213,22.765,6.64a15.612,15.612,0,0,0,9.093,2.922,15.157,15.157,0,0,0,15.4-14.184c.021-.374.031-.754.031-1.142v-6.715a12.631,12.631,0,0,0-12.63-12.631Z"/><path fill="#fff" d="M42.974 72.238a3.7 3.7 0 0 1 .6-7.277c9.409-.738 23.036-.627 40.566 2.558a162.521 162.521 0 0 0 36.315 2.8 3.7 3.7 0 0 1 1.142 7.261c-8.5 2.4-20.6 3.747-37.457 1.723C64.878 76.993 51.684 74.4 42.974 72.238zM284.472 68.147a151.143 151.143 0 0 1 23.781 6.4 1.736 1.736 0 0 1-.739 3.365c-12.041-1.175-30.449-2.2-45.027.364a1.731 1.731 0 0 1-1.585-2.86 22.289 22.289 0 0 1 6.515-4.928A26.844 26.844 0 0 1 284.472 68.147z"/></svg>