<svg xmlns="http://www.w3.org/2000/svg" viewBox="0 0 64 64"><path d="M45.44 17.07a6.24 6.24 0 0 1 4.43-1.39c2.81.23 5.77 2.33 8.32 5.9a1 1 0 0 0 1.81-.82c-.09-.35-2.23-8.65-8.81-9.74a7.34 7.34 0 0 0-3.81.28 8.1 8.1 0 0 1 1.32-.89c3.21-1.72 7.41-1.48 8.77-.57a1 1 0 0 0 1.19-1.6C58.37 8 52 2.81 46.49 6.14c-3.49 2.07-4.09 5.75-3.84 8.47-2-1.4-5.2-2.95-8.09-1.5C30.13 15.32 30 24 30 25a1 1 0 0 0 .89 1H31a1 1 0 0 0 1-.77c0-.06 1.43-6 5.32-7.84a5.74 5.74 0 0 1 3.24-.46A6.85 6.85 0 0 0 37 21.8c-1.49 7.45 5.08 12.76 5.36 13a1 1 0 0 0 1.55-1.14c-1.22-3.17-3.41-11.57-.2-15.09C50.19 29.86 54 40.59 53 57.94A1 1 0 0 0 54 59h5a1 1 0 0 0 1-1.07c-.08-1.14-2.11-27.48-14.56-40.86Zm-9-1.49a9.6 9.6 0 0 0-3.44 2.9 5.89 5.89 0 0 1 2.46-3.59 3.59 3.59 0 0 1 1.63-.37 5.63 5.63 0 0 1 1.89.36 7.51 7.51 0 0 0-2.54.7ZM50.84 13a7.31 7.31 0 0 1 4.38 2.72 10.63 10.63 0 0 0-5.19-2h-.7a8 8 0 0 0-2.85.52A4.66 4.66 0 0 1 50.84 13Zm-3.33-5.14a5.77 5.77 0 0 1 3-.81 7.85 7.85 0 0 1 1.7.19 13.22 13.22 0 0 0-4.5 1.4 9.42 9.42 0 0 0-2.62 2 5.65 5.65 0 0 1 2.42-2.78ZM40.77 30A10.39 10.39 0 0 1 39 22.2a4.91 4.91 0 0 1 2.09-3.27C39.51 22.17 40 26.66 40.77 30Zm14.28 27c.45-9.81-.61-17.54-2.8-24.48A101.4 101.4 0 0 1 57.9 57Z"/><path d="m43.64 39.24-19-16a1 1 0 0 0-1.29 0l-19 16A1 1 0 0 0 5 41h2v17a1 1 0 0 0 1 1h32a1 1 0 0 0 1-1V41h2a1 1 0 0 0 .64-1.76ZM24 25.31 40.26 39H7.74ZM21 57h-6V46h6Zm18 0H23V45a1 1 0 0 0-1-1h-8a1 1 0 0 0-1 1v12H9V41h30Z"/><path d="M34 53h-8a1 1 0 0 1-1-1v-7a1 1 0 0 1 1-1h8a1 1 0 0 1 1 1v7a1 1 0 0 1-1 1Zm-7-2h6v-5h-6Z"/></svg>