<?xml version="1.0" standalone="no"?>
<!DOCTYPE svg PUBLIC "-//W3C//DTD SVG 20010904//EN"
 "http://www.w3.org/TR/2001/REC-SVG-20010904/DTD/svg10.dtd">
<svg version="1.0" xmlns="http://www.w3.org/2000/svg"
 width="1024.000000pt" height="1024.000000pt" viewBox="0 0 1024.000000 1024.000000"
 preserveAspectRatio="xMidYMid meet">

<g transform="translate(0.000000,1024.000000) scale(0.100000,-0.100000)"
fill="#000000" stroke="none">
<path d="M3390 9260 c-57 -8 -301 -88 -339 -111 -12 -8 -20 -20 -19 -28 2 -10
30 -13 129 -12 145 2 228 -13 326 -60 79 -38 196 -145 229 -211 75 -148 63
-314 -34 -468 -49 -79 -200 -224 -320 -308 -107 -77 -198 -162 -238 -224 -29
-46 -64 -147 -65 -190 0 -29 -12 -43 -101 -118 -56 -47 -170 -151 -253 -232
l-152 -147 -59 10 c-32 5 -135 13 -227 16 -139 5 -170 4 -178 -8 -28 -45 30
-495 71 -544 6 -7 -3 -29 -27 -65 -60 -89 -187 -364 -248 -535 -100 -281 -158
-555 -191 -900 -44 -460 37 -1026 208 -1460 130 -329 268 -593 431 -825 167
-239 305 -400 445 -523 588 -514 1231 -817 1972 -928 173 -26 516 -36 701 -20
470 41 942 181 1379 408 628 327 1172 900 1483 1563 171 364 279 753 324 1160
52 480 -13 1032 -179 1505 -85 243 -151 388 -235 520 l-45 69 21 61 c50 143
105 465 87 511 -7 19 -187 19 -366 -1 l-135 -15 -150 154 c-82 84 -189 188
-236 230 l-86 77 -5 62 c-6 77 -59 196 -113 256 -21 23 -95 86 -164 140 -191
149 -294 265 -343 390 -18 47 -22 76 -23 176 0 120 0 122 38 197 42 86 110
155 203 208 108 60 156 73 299 76 78 1 131 6 133 12 5 15 -65 59 -132 82 -98
35 -193 50 -309 50 -134 -1 -208 -17 -305 -67 -262 -134 -433 -424 -434 -733
-1 -105 19 -242 47 -320 13 -38 13 -41 -3 -36 -191 60 -313 88 -522 116 -191
27 -551 37 -765 22 -152 -11 -543 -76 -668 -111 -62 -17 -68 -17 -64 -2 3 9
17 48 30 86 69 197 59 409 -27 590 -85 179 -263 348 -445 421 -105 43 -211 53
-351 34z m234 -95 c152 -40 292 -151 360 -285 35 -67 39 -85 43 -170 5 -84 -1
-143 -23 -270 -4 -19 -10 -37 -13 -40 -4 -3 -12 -32 -19 -64 -17 -85 -64 -156
-164 -250 -94 -87 -230 -177 -269 -175 -16 0 -19 3 -9 6 33 13 228 149 271
190 26 24 59 63 75 86 15 23 37 52 48 64 18 21 38 85 73 233 30 129 2 326 -60
433 -64 108 -231 215 -372 237 -38 6 -71 13 -74 16 -10 10 80 3 133 -11z
m3209 -4 c-67 -23 -119 -59 -211 -145 -83 -79 -135 -159 -151 -235 -14 -67
-14 -226 0 -253 6 -11 22 -59 36 -106 44 -154 103 -243 231 -352 59 -52 151
-101 222 -122 43 -12 43 -12 15 -16 -45 -6 -95 13 -180 69 -85 55 -175 140
-222 209 -72 107 -120 258 -129 405 -14 213 38 316 241 483 l40 32 -63 -30
c-78 -38 -146 -99 -177 -160 -13 -25 -24 -38 -25 -30 -1 31 -19 -8 -38 -80
-25 -94 -35 -228 -23 -300 13 -73 29 -137 41 -158 5 -9 22 -48 38 -87 16 -38
38 -83 48 -100 21 -33 163 -170 232 -224 24 -18 41 -36 38 -38 -3 -3 -29 9
-58 25 -47 28 -94 71 -196 182 -41 46 -128 243 -147 337 -20 98 -19 240 4 335
10 43 17 79 15 81 -2 2 10 19 26 37 17 19 30 37 30 41 0 16 102 110 142 131
78 41 202 87 238 87 34 0 33 -1 -17 -18z m-3114 -70 c20 -11 74 -58 119 -106
64 -67 85 -97 98 -138 25 -81 29 -247 11 -379 -25 -169 -26 -173 -19 -48 4 63
7 174 7 245 0 119 -2 135 -26 185 -33 71 -129 183 -194 226 -55 38 -54 44 4
15z m145 -232 c21 -37 38 -182 31 -258 -11 -105 -68 -254 -130 -337 -46 -62
-115 -127 -115 -110 0 3 22 31 50 61 68 76 114 147 147 230 25 64 27 82 28
205 0 125 -2 139 -26 190 -14 31 -39 71 -55 90 -57 67 -57 74 -1 15 32 -33 64
-72 71 -86z m2752 79 c-107 -142 -122 -333 -41 -535 49 -122 167 -267 315
-387 51 -41 14 -19 -51 30 -216 165 -353 439 -332 664 7 74 48 172 94 225 39
44 48 46 15 3z m-238 -118 c-60 -123 -63 -298 -9 -458 70 -207 153 -330 295
-436 81 -61 106 -86 87 -86 -27 0 -203 154 -258 225 -115 150 -196 407 -179
570 7 67 38 173 64 218 29 49 29 28 0 -33z m-2296 -85 c13 -61 4 -249 -17
-355 -22 -110 -89 -242 -164 -322 -69 -74 -199 -184 -207 -175 -3 2 18 24 47
48 67 56 150 143 200 211 88 117 118 218 126 428 4 106 2 149 -11 200 -27 103
-27 108 -5 60 11 -25 25 -67 31 -95z m-211 -440 c-39 -85 -121 -166 -238 -235
-48 -29 -98 -56 -111 -61 -47 -18 -10 10 91 69 157 91 258 218 275 344 l7 53
3 -52 c2 -40 -4 -66 -27 -118z m2457 -71 c33 -107 157 -273 281 -377 28 -23
38 -37 28 -37 -42 0 -249 235 -307 349 -25 49 -60 206 -59 261 1 25 6 12 18
-45 10 -44 27 -112 39 -151z m-2217 27 c-11 -36 -37 -95 -58 -130 -39 -66
-192 -235 -247 -273 l-31 -22 25 28 c14 16 61 65 106 110 123 123 211 290 216
410 2 40 2 40 5 -8 3 -30 -3 -73 -16 -115z m1404 -216 c180 -19 349 -48 500
-86 121 -30 324 -93 358 -111 26 -13 97 -79 97 -88 0 -5 -49 -25 -108 -44 -60
-20 -142 -53 -183 -72 -103 -50 -308 -180 -407 -260 -80 -64 -269 -266 -322
-343 -61 -90 -184 -327 -222 -429 -11 -29 -23 -50 -27 -47 -5 2 -16 26 -26 52
-10 26 -53 120 -96 208 -146 302 -346 524 -648 718 -72 47 -270 142 -366 176
-128 45 -125 42 -84 89 19 22 54 51 79 65 106 59 582 161 840 180 132 10 489
5 615 -8z m1592 -246 c28 -11 43 -26 43 -45 0 -8 -17 -8 -62 2 -35 7 -92 14
-128 14 -54 1 -61 3 -40 11 63 26 145 34 187 18z m-3612 -21 c38 -12 31 -13
-110 -18 -82 -3 -156 -9 -162 -13 -21 -13 -15 11 8 34 20 20 29 21 123 16 55
-3 119 -11 141 -19z m192 -58 c40 -5 108 -19 150 -31 84 -24 122 -45 63 -36
-254 42 -548 30 -683 -28 -16 -6 -18 -4 -15 16 2 20 15 28 70 46 101 34 291
49 415 33z m3278 0 c94 -14 168 -36 196 -59 38 -31 17 -34 -72 -11 -104 27
-260 35 -439 22 -74 -5 -137 -8 -139 -6 -12 10 139 46 239 57 69 8 146 6 215
-3z m-3075 -100 c160 -20 340 -79 405 -135 l20 -17 -20 7 c-57 21 -193 56
-290 77 -96 19 -139 22 -335 22 -212 0 -230 -2 -320 -26 -94 -26 -134 -24 -89
5 88 56 426 91 629 67z m2954 0 c127 -11 259 -43 301 -74 35 -25 12 -25 -85 0
-117 30 -345 42 -497 25 -154 -17 -362 -59 -422 -87 -30 -13 -56 -23 -58 -20
-8 8 101 70 160 91 87 32 211 56 336 64 58 5 113 9 122 10 9 0 73 -4 143 -9z
m-2939 -100 c61 -5 164 -23 230 -40 66 -16 127 -30 136 -30 29 0 240 -110 298
-154 56 -44 139 -127 111 -111 -8 5 -35 23 -60 41 -192 137 -438 219 -730 245
-201 18 -469 -3 -542 -42 -32 -17 -46 5 -16 25 57 37 212 64 428 74 19 1 85
-3 145 -8z m2980 -16 c101 -18 209 -54 204 -69 -2 -5 -7 -9 -10 -8 -3 1 -55
12 -115 25 -93 20 -137 23 -299 22 -166 -1 -206 -4 -314 -27 -252 -54 -421
-121 -545 -214 -56 -42 -83 -51 -56 -18 27 32 164 128 243 170 224 118 600
168 892 119z m-3709 -134 c71 -93 187 -179 493 -365 278 -169 420 -319 560
-588 l63 -122 -47 -3 c-76 -5 -116 22 -238 163 -184 213 -348 341 -592 460
-137 67 -358 147 -512 185 -51 12 -93 25 -93 29 0 4 55 57 123 118 163 148
191 172 198 173 4 0 24 -22 45 -50z m944 16 c69 -14 178 -47 243 -72 126 -49
334 -170 401 -233 70 -65 176 -208 176 -235 0 -3 -24 20 -52 52 -208 227 -440
359 -763 435 -211 50 -450 59 -615 23 -36 -8 -78 -17 -95 -21 l-30 -6 23 20
c21 18 157 55 242 65 19 2 105 3 190 1 119 -2 184 -9 280 -29z m2740 8 c115
-26 140 -35 140 -47 0 -10 -20 -9 -87 5 -108 23 -361 27 -478 9 -357 -56 -641
-189 -878 -411 -37 -34 -70 -61 -72 -58 -8 7 78 103 153 173 71 64 196 151
278 193 158 81 374 137 594 156 80 7 283 -5 350 -20z m568 -153 c61 -60 112
-113 112 -118 0 -5 -39 -19 -87 -32 -506 -138 -802 -319 -1093 -666 -95 -114
-101 -117 -177 -127 -37 -4 -68 -6 -70 -4 -2 1 6 28 16 59 18 52 51 109 158
269 81 122 268 284 460 399 125 74 316 205 374 254 27 23 65 63 85 88 l36 47
37 -30 c20 -16 87 -78 149 -139z m-3328 40 c197 -36 352 -100 538 -223 146
-96 266 -220 356 -368 47 -78 96 -179 96 -200 0 -8 -15 17 -34 55 -41 85 -177
257 -272 344 -273 252 -670 391 -1079 379 -82 -3 -158 -9 -167 -13 -11 -4 -18
-3 -18 3 0 13 49 30 125 42 87 13 333 3 455 -19z m2681 8 c76 -11 109 -22 97
-35 -4 -3 -61 0 -128 7 -213 23 -484 -20 -715 -113 -276 -112 -544 -341 -689
-590 -15 -27 -30 -48 -32 -48 -18 0 95 202 160 288 54 71 155 167 221 212 28
18 62 44 77 56 41 34 264 140 365 173 186 63 418 80 644 50z m-2600 -137 c189
-52 388 -156 543 -286 81 -67 207 -217 267 -317 31 -52 70 -116 87 -144 17
-27 34 -63 37 -80 5 -23 -1 -18 -25 25 -17 30 -41 66 -54 80 -13 14 -44 57
-70 97 -132 199 -339 381 -551 483 -186 90 -435 150 -625 150 -103 0 -134 5
-124 22 4 6 78 8 203 6 182 -4 204 -7 312 -36z m2548 29 c19 -12 -21 -18 -159
-25 -307 -15 -629 -133 -831 -304 -116 -98 -211 -197 -271 -282 -51 -72 -130
-223 -158 -303 -10 -29 -19 -45 -19 -37 -2 47 66 218 142 355 82 148 303 353
477 444 127 66 328 131 480 154 53 9 326 6 339 -2z m-2659 -126 c97 -16 274
-79 369 -131 75 -42 222 -150 303 -224 60 -54 126 -145 173 -240 62 -122 145
-384 145 -455 0 -43 -17 -19 -24 34 -15 114 -100 327 -181 453 -92 144 -329
342 -507 426 -129 61 -414 142 -498 142 -11 0 -22 5 -25 11 -9 13 117 5 245
-16z m2485 0 c-16 -7 -59 -16 -95 -20 -197 -20 -469 -127 -628 -246 -146 -109
-320 -316 -397 -468 -39 -78 -115 -276 -115 -300 0 -11 -4 -23 -10 -26 -48
-30 93 352 183 497 69 111 164 216 279 308 204 165 487 268 738 268 71 0 73 0
45 -13z m-4123 -35 c516 -60 770 -133 1069 -310 142 -84 237 -159 348 -277 47
-48 114 -119 150 -157 80 -84 138 -112 255 -128 47 -6 86 -14 86 -18 0 -14
-82 -115 -92 -112 -5 1 -7 -1 -4 -6 6 -10 -79 -183 -87 -176 -3 3 3 20 14 37
10 18 19 37 19 42 -1 18 -43 -69 -46 -95 -3 -19 -1 -22 7 -10 8 12 9 11 6 -5
-2 -11 -9 -19 -16 -17 -9 2 -11 -3 -8 -13 4 -8 2 -15 -4 -15 -6 0 -7 -4 -4
-10 3 -5 1 -10 -4 -10 -6 0 -10 -6 -9 -12 2 -7 -3 -12 -11 -10 -12 3 -12 0 -2
-12 16 -19 27 -156 14 -156 -16 0 -93 87 -159 180 -72 99 -105 162 -188 360
-87 205 -144 298 -246 400 -189 190 -427 305 -755 365 -121 22 -346 55 -376
55 -16 0 -10 -29 16 -80 29 -57 41 -67 19 -15 -12 30 -12 34 1 29 8 -3 14 -9
13 -12 -3 -15 15 -41 24 -36 5 3 4 12 -3 21 -10 11 -5 11 24 -3 20 -10 37 -24
37 -31 0 -8 5 -11 10 -8 6 3 10 -1 10 -9 0 -10 6 -13 15 -10 13 5 19 -5 17
-27 -1 -3 10 -5 23 -3 21 2 23 0 15 -16 -14 -26 -12 -34 4 -21 11 9 15 9 19
-1 4 -10 8 -10 16 2 9 13 11 13 11 -2 0 -10 7 -18 15 -18 8 0 15 -7 15 -16 0
-14 2 -15 17 -3 15 12 16 12 10 -3 -4 -12 -2 -15 9 -11 8 3 14 -1 14 -10 0
-11 7 -15 20 -12 11 2 18 0 15 -6 -4 -5 1 -9 9 -9 9 0 16 -5 16 -11 0 -5 5 -7
10 -4 6 3 10 1 10 -4 0 -6 3 -10 8 -10 4 1 10 0 15 -1 16 -5 28 -8 48 -9 11 0
18 -5 15 -10 -3 -4 5 -6 19 -4 23 5 121 -22 138 -37 4 -4 2 -12 -6 -18 -10 -8
-48 -6 -148 7 -267 37 -346 35 -207 -4 34 -9 96 -32 137 -50 42 -17 120 -49
174 -70 77 -30 97 -42 97 -58 0 -16 2 -17 16 -7 12 11 15 11 12 -1 -2 -8 3
-13 10 -12 6 2 12 -1 12 -6 0 -13 42 -22 54 -12 7 5 25 -1 46 -16 30 -22 32
-24 10 -19 -114 29 -294 52 -460 59 l-105 5 75 -25 c41 -13 111 -35 155 -49
44 -14 98 -34 120 -44 22 -10 68 -28 103 -41 46 -18 62 -29 63 -44 1 -17 2
-17 6 -2 4 16 7 16 41 -2 20 -11 61 -27 89 -37 69 -23 61 -29 -13 -10 -80 20
-142 26 -319 30 -82 3 -159 7 -170 10 -11 4 5 -5 35 -20 30 -14 110 -40 178
-59 69 -18 128 -38 132 -45 4 -7 12 -10 18 -6 16 9 42 -4 43 -23 0 -10 2 -11
6 -3 8 19 23 14 23 -8 0 -17 3 -18 19 -8 15 9 30 8 75 -6 31 -10 56 -19 56
-21 0 -11 -93 -1 -105 12 -8 8 -15 10 -15 4 0 -21 -296 0 -355 24 -13 5 -10 0
9 -15 69 -57 306 -139 534 -186 234 -48 354 -96 482 -194 96 -74 120 -101 123
-136 3 -45 -26 -41 -102 15 -38 28 -117 74 -176 102 -91 44 -131 56 -259 81
-316 61 -390 82 -541 157 -245 122 -408 281 -553 540 -94 166 -154 335 -202
567 -29 142 -34 174 -26 174 2 0 82 -9 178 -20z m5688 5 c0 -2 -11 -54 -25
-117 -103 -478 -313 -836 -625 -1068 -160 -118 -269 -158 -642 -235 -261 -53
-339 -86 -462 -191 -75 -63 -90 -72 -100 -56 -7 12 13 84 23 78 4 -3 13 4 20
16 10 16 10 19 -1 12 -7 -4 16 20 52 54 120 113 243 162 570 228 96 19 200 44
232 55 83 28 223 96 239 116 11 13 11 15 1 9 -8 -5 -44 -12 -80 -17 -86 -10
-359 -23 -352 -16 3 3 32 15 64 26 41 14 63 18 72 10 9 -7 11 -5 10 7 -1 11
13 21 39 30 22 8 49 18 60 24 11 5 52 18 90 29 39 10 92 28 120 39 l50 19
-180 -4 c-161 -4 -271 -17 -330 -39 -14 -5 -17 -4 -10 3 17 18 173 83 295 123
63 21 145 52 181 68 36 16 92 38 125 48 58 18 58 19 23 22 -20 2 -92 -4 -160
-13 -184 -24 -269 -30 -269 -17 0 14 89 54 102 46 5 -3 15 1 21 10 7 8 67 38
135 66 67 27 146 62 175 76 28 15 67 32 87 40 55 20 15 17 -232 -19 -125 -19
-225 -30 -222 -25 3 4 12 8 20 8 8 0 14 5 14 11 0 6 9 8 21 4 16 -5 19 -4 14
6 -6 9 -2 11 13 7 13 -4 23 0 26 9 4 8 13 13 21 9 8 -3 15 -1 15 4 0 6 10 10
23 10 12 0 40 9 62 19 22 10 50 17 63 16 12 -1 22 2 22 6 0 4 14 10 30 14 17
4 28 11 25 16 -4 5 1 6 9 3 9 -3 16 -1 16 6 0 6 4 9 9 5 5 -3 13 0 17 6 4 8 3
9 -4 5 -7 -4 -12 -4 -12 -1 0 10 30 37 31 28 0 -4 4 2 10 15 5 13 13 20 19 17
5 -3 10 -2 10 2 0 5 10 14 23 19 12 6 16 9 9 7 -7 -1 -10 2 -6 8 3 6 15 9 25
6 12 -3 17 -1 12 6 -4 6 0 8 10 4 9 -3 16 -3 16 1 -3 19 2 25 11 12 8 -13 10
-12 10 3 0 10 5 15 10 12 6 -3 10 -1 10 4 0 6 27 24 60 40 32 16 59 26 58 22
-3 -25 6 -30 11 -6 3 17 12 30 19 30 18 0 44 37 34 47 -13 13 -396 -44 -547
-83 -163 -41 -356 -131 -465 -214 -100 -77 -229 -226 -294 -339 -16 -27 -61
-124 -100 -216 -91 -211 -161 -337 -244 -441 l-66 -83 -12 75 c-6 41 -17 93
-23 115 -6 23 -8 49 -5 58 3 9 2 16 -4 16 -5 0 -17 21 -27 48 -28 76 -86 180
-132 240 -23 30 -40 58 -38 62 2 4 44 10 92 13 48 3 111 14 138 23 55 19 105
67 242 234 127 154 355 316 573 408 253 107 575 181 910 210 76 7 120 6 120
-3z m-3944 -120 c125 -38 177 -63 308 -149 135 -89 214 -164 290 -279 90 -136
151 -280 181 -426 22 -105 1 -91 -29 19 -35 123 -97 264 -156 350 -131 194
-354 361 -606 455 -51 19 -99 35 -107 35 -24 0 -77 22 -72 30 7 11 92 -5 191
-35z m2238 35 c-6 -6 -63 -29 -127 -50 -260 -88 -433 -203 -604 -400 -107
-124 -217 -326 -253 -467 -11 -44 -30 -59 -30 -24 0 29 72 224 118 321 139
293 451 534 782 605 128 28 126 27 114 15z m-2008 -277 c111 -69 158 -111 244
-219 94 -118 200 -347 200 -433 0 -37 -28 -8 -36 38 -13 71 -68 197 -121 278
-110 166 -245 287 -446 398 -50 28 -92 55 -94 62 -7 19 141 -53 253 -124z
m1833 111 c-7 -9 -49 -33 -92 -55 -260 -128 -503 -406 -591 -676 -16 -49 -31
-71 -42 -61 -9 10 60 199 103 279 121 230 343 426 576 509 29 10 54 19 56 19
2 1 -3 -6 -10 -15z m-154 -202 c-129 -115 -155 -141 -203 -196 -78 -89 -147
-198 -188 -298 -35 -84 -54 -109 -54 -70 0 32 66 178 115 258 63 100 167 211
275 290 91 67 121 76 55 16z m-1717 -26 c102 -75 185 -159 237 -240 50 -78
112 -211 124 -264 15 -72 -9 -45 -49 55 -67 167 -174 306 -360 466 -30 26 -51
47 -47 47 4 0 47 -29 95 -64z m-1208 -72 c39 -15 69 -28 68 -30 -3 -3 -134 23
-156 31 -14 5 -7 25 8 25 5 0 41 -12 80 -26z m1870 -89 c0 -5 -5 -3 -10 5 -5
8 -10 20 -10 25 0 6 5 3 10 -5 5 -8 10 -19 10 -25z m-530 -142 c40 -57 110
-190 110 -209 0 -2 -4 -4 -10 -4 -5 0 -26 33 -46 73 -20 39 -58 104 -84 142
-26 39 -55 86 -64 105 l-17 35 30 -35 c17 -19 53 -67 81 -107z m1469 80 c-87
-128 -110 -165 -141 -227 -31 -64 -48 -82 -48 -52 0 22 72 156 111 207 92 121
144 168 78 72z m-914 -13 c32 -84 76 -235 81 -280 2 -26 -10 9 -30 80 -19 69
-46 156 -60 195 -15 38 -23 65 -18 60 5 -6 17 -30 27 -55z m-2640 -205 c154
-233 362 -410 609 -517 116 -51 196 -72 401 -109 217 -38 301 -61 400 -109 91
-44 172 -115 230 -203 38 -57 38 -58 32 -135 -3 -54 -16 -107 -42 -177 -55
-150 -189 -554 -229 -690 -44 -151 -149 -530 -182 -655 -33 -124 -112 -380
-169 -550 -25 -74 -59 -187 -75 -250 -16 -63 -40 -155 -53 -205 -58 -212 -80
-290 -83 -294 -4 -5 -116 83 -250 196 -281 237 -513 532 -717 909 -252 466
-369 897 -392 1449 -20 462 114 1107 310 1495 57 112 53 110 97 28 22 -39 72
-122 113 -183z m5708 178 c68 -132 175 -430 227 -633 25 -99 66 -337 81 -470
16 -150 13 -518 -6 -679 -90 -769 -421 -1453 -964 -1998 -161 -161 -341 -312
-341 -287 0 43 -147 598 -200 755 -32 97 -78 245 -100 330 -91 337 -291 1028
-348 1204 -22 66 -67 193 -101 283 -102 273 -104 334 -8 438 115 127 233 186
442 224 161 29 372 76 431 96 151 51 350 171 454 275 147 145 311 366 371 502
7 15 15 27 19 27 4 0 23 -30 43 -67z m-3613 -429 c148 -217 282 -364 412 -450
93 -62 170 -85 283 -86 77 0 101 4 166 29 106 41 176 91 261 186 93 103 144
171 243 322 43 66 80 122 82 124 7 9 52 -44 88 -104 55 -92 86 -202 92 -325
l6 -105 -84 0 c-74 0 -90 -3 -138 -30 -96 -53 -161 -143 -217 -302 -20 -54
-41 -103 -47 -109 -9 -8 -37 -9 -102 -2 -50 6 -251 8 -452 5 l-362 -5 -27 72
c-39 102 -113 234 -158 279 -21 22 -63 50 -93 64 -47 22 -65 25 -140 21 l-85
-3 7 90 c14 181 54 313 121 398 37 47 48 56 59 47 8 -7 46 -59 85 -116z m-68
-581 c15 -15 28 -35 28 -45 0 -27 -45 -68 -74 -68 -23 0 -86 51 -86 70 0 5 12
22 26 39 33 39 68 40 106 4z m1608 -3 c11 -11 20 -27 20 -35 0 -22 -59 -85
-80 -85 -22 0 -80 47 -80 65 0 21 69 75 95 75 14 0 34 -9 45 -20z m-1740 -251
c23 -33 56 -69 73 -80 38 -23 120 -25 157 -4 55 31 73 20 144 -90 18 -27 38
-49 45 -47 30 6 118 -284 140 -468 25 -194 7 -451 -38 -581 -11 -31 -25 -85
-31 -121 -16 -101 0 -157 62 -214 51 -48 76 -58 168 -64 78 -5 85 -7 99 -31
35 -63 -25 -117 -117 -103 -152 23 -273 102 -318 209 -32 78 -12 221 55 378
85 203 101 371 45 486 -36 72 -150 184 -309 303 -129 97 -201 172 -229 240
-20 47 -31 200 -17 227 7 11 16 21 21 21 5 0 28 -27 50 -61z m1828 -9 c5 -104
-12 -181 -52 -242 -48 -70 -47 -81 5 -76 l41 4 -6 -61 c-34 -311 -115 -550
-263 -781 -36 -57 -68 -103 -69 -101 -2 1 -10 30 -19 62 -20 77 -10 130 52
268 119 269 159 377 184 488 10 47 22 94 26 105 5 13 -3 10 -33 -13 -21 -16
-82 -62 -135 -101 -165 -122 -257 -237 -283 -352 -28 -124 -14 -252 45 -392
70 -169 82 -210 83 -298 1 -77 -2 -90 -29 -139 -46 -83 -175 -153 -307 -167
-54 -5 -67 -3 -88 14 -19 16 -24 27 -22 58 4 49 14 59 57 55 56 -4 141 18 183
49 26 19 49 49 67 86 25 53 27 65 22 134 -4 41 -13 100 -22 130 -63 225 -65
250 -40 520 16 184 54 386 87 467 23 55 141 223 157 223 4 0 29 -7 55 -16 95
-32 181 1 245 96 19 28 39 49 45 47 6 -2 12 -32 14 -67z m-1830 -310 c14 -12
36 -60 61 -132 38 -115 73 -197 154 -369 77 -163 99 -222 104 -280 5 -54 -12
-159 -25 -159 -14 0 -131 188 -181 288 -92 184 -146 378 -158 565 -7 117 -2
126 45 87z m-262 -2907 c-2 -3 -48 14 -102 36 -53 23 -103 41 -111 41 -11 0
-13 148 -11 918 l3 917 52 165 c49 157 132 458 157 565 8 38 12 -267 14 -1294
1 -739 0 -1346 -2 -1348z m2357 2447 c20 -74 63 -223 97 -331 33 -108 64 -220
70 -248 6 -30 10 -402 10 -912 l1 -861 -107 -44 c-59 -24 -110 -41 -113 -38
-9 8 -12 1889 -5 2262 3 172 8 312 9 310 2 -2 19 -64 38 -138z m-315 -452 c-3
-42 -1 -75 4 -72 4 3 8 -447 8 -1000 l0 -1004 -32 -11 c-49 -15 -195 -51 -209
-51 -9 0 -11 206 -6 975 l5 975 45 50 c49 54 166 243 168 269 0 9 5 0 11 -19
5 -19 8 -70 6 -112z m-1649 -61 c30 -43 66 -88 82 -101 l27 -23 -4 -954 c-2
-525 -4 -965 -4 -979 l0 -26 -118 30 -117 30 2 955 c1 526 6 957 10 958 4 2 7
72 5 155 l-2 153 33 -60 c18 -33 56 -95 86 -138z m637 -43 c29 -19 60 -44 69
-54 27 -29 52 -25 102 20 65 57 125 84 175 77 47 -6 87 -33 105 -68 12 -24 12
-24 -50 -27 -92 -3 -102 -8 -167 -67 -58 -54 -61 -55 -119 -55 -57 0 -60 1
-121 56 -71 63 -94 74 -156 74 -36 0 -44 3 -44 18 0 39 69 75 125 65 17 -2 53
-20 81 -39z m-131 -590 c35 -11 101 -17 225 -19 164 -3 234 3 327 31 34 9 19
-29 -28 -71 -88 -80 -224 -119 -341 -97 -94 17 -185 67 -226 125 -38 52 -33
55 43 31z m17 -268 c29 -14 63 -26 77 -26 l26 0 -3 -612 -2 -613 -28 -3 c-15
-1 -72 3 -127 10 l-100 13 0 390 c0 215 1 517 3 673 l3 283 50 -45 c27 -24 73
-56 101 -70z m-1392 -357 l0 -461 -42 27 c-24 14 -64 36 -90 48 -56 25 -55 18
-28 182 16 101 150 665 158 665 1 0 2 -207 2 -461z m2013 -869 c-8 -7 -182
-30 -227 -30 l-26 0 0 308 c0 169 3 445 7 614 l6 306 36 7 c37 7 142 62 183
95 l23 18 3 -656 c1 -361 -1 -659 -5 -662z m1261 1235 c8 -27 25 -90 36 -140
12 -49 43 -180 70 -290 28 -110 53 -221 56 -246 l6 -46 -88 -44 c-48 -24 -91
-45 -96 -47 -4 -2 -9 195 -10 437 -2 242 0 437 3 433 4 -4 14 -29 23 -57z"/>
<path d="M3081 6304 c0 -11 3 -14 6 -6 3 7 2 16 -1 19 -3 4 -6 -2 -5 -13z"/>
<path d="M4195 5939 c-4 -6 -5 -12 -2 -15 2 -3 7 2 10 11 7 17 1 20 -8 4z"/>
<path d="M7932 6760 c0 -14 2 -19 5 -12 2 6 2 18 0 25 -3 6 -5 1 -5 -13z"/>
<path d="M6112 6050 c12 -19 28 -27 28 -14 0 7 -27 34 -34 34 -4 0 -1 -9 6
-20z"/>
<path d="M6082 3670 c0 -14 2 -19 5 -12 2 6 2 18 0 25 -3 6 -5 1 -5 -13z"/>
<path d="M6071 3614 c0 -11 3 -14 6 -6 3 7 2 16 -1 19 -3 4 -6 -2 -5 -13z"/>
</g>
</svg>
