<?xml version="1.0" standalone="no"?>
<!DOCTYPE svg PUBLIC "-//W3C//DTD SVG 20010904//EN"
 "http://www.w3.org/TR/2001/REC-SVG-20010904/DTD/svg10.dtd">
<svg version="1.0" xmlns="http://www.w3.org/2000/svg"
 width="682.000000pt" height="912.000000pt" viewBox="0 0 682.000000 912.000000"
 preserveAspectRatio="xMidYMid meet">

<g transform="translate(0.000000,912.000000) scale(0.100000,-0.100000)"
fill="#000000" stroke="none">
<path d="M5397 8764 c-4 -4 -7 -19 -7 -33 0 -28 -41 -239 -64 -331 -19 -77
-69 -209 -120 -315 -76 -161 -152 -273 -251 -370 -132 -131 -208 -182 -554
-373 -182 -101 -325 -261 -436 -487 -37 -76 -72 -165 -84 -214 -27 -109 -49
-135 -82 -95 -11 13 -28 15 -90 12 -76 -4 -87 -9 -196 -69 -23 -13 -44 -21
-47 -18 -4 3 1 23 10 45 14 33 15 57 8 164 -5 69 -8 181 -8 250 0 111 3 134
28 205 69 194 228 307 409 288 49 -5 55 -8 40 -18 -10 -7 -49 -20 -88 -30
-126 -33 -167 -63 -244 -185 -67 -103 -85 -178 -78 -324 3 -66 11 -149 18
-184 l13 -62 50 7 c28 5 69 8 92 8 l41 0 -5 70 c-5 76 27 286 53 347 28 67 89
162 191 298 129 171 185 283 214 425 52 259 53 266 54 500 1 185 -3 251 -18
335 -21 118 -33 151 -47 129 -5 -8 -9 -30 -9 -49 0 -48 -33 -229 -59 -321 -11
-42 -46 -146 -77 -230 -114 -311 -149 -365 -417 -639 -201 -205 -235 -270
-258 -494 -5 -50 -13 -93 -17 -97 -4 -4 -45 16 -92 45 -290 180 -548 273 -848
306 -56 6 -107 8 -112 5 -32 -20 59 -384 132 -530 101 -200 278 -363 482 -445
104 -42 264 -59 253 -27 -2 6 -37 29 -78 50 -119 63 -217 126 -239 154 -11 14
-18 28 -16 30 2 2 44 -16 93 -41 104 -52 188 -76 266 -76 104 0 102 42 -9 232
-132 227 -225 302 -484 393 -128 45 -153 56 -143 66 9 8 142 -18 233 -45 30
-9 98 -37 150 -63 112 -56 205 -142 285 -266 63 -98 122 -186 159 -237 l29
-40 -45 -52 c-99 -119 -107 -150 -64 -268 l24 -65 108 -3 c64 -2 126 2 149 9
22 6 92 45 155 87 119 79 212 129 290 156 63 22 192 21 253 -2 46 -18 197
-135 197 -154 0 -19 -67 -5 -137 28 -87 42 -168 53 -254 35 -111 -24 -394
-184 -394 -224 0 -6 22 -15 50 -20 27 -5 81 -17 120 -29 280 -80 360 -98 453
-98 l94 0 -4 -105 c-2 -64 -8 -109 -15 -116 -9 -9 -31 -10 -98 0 -47 6 -96 16
-108 21 -29 12 -135 41 -272 75 -188 46 -246 62 -360 99 -60 19 -150 40 -200
46 -49 6 -98 12 -109 13 -13 1 -35 -22 -75 -79 -31 -44 -90 -123 -131 -174
-188 -234 -194 -245 -188 -329 2 -34 9 -65 14 -69 5 -4 119 -5 254 -1 244 7
348 20 520 64 119 30 118 30 126 0 10 -40 8 -41 -166 -85 -236 -61 -423 -88
-540 -80 -133 9 -141 5 -88 -47 71 -69 195 -99 363 -88 60 3 131 10 158 16 57
10 295 45 382 55 91 10 171 38 299 104 178 91 250 154 323 280 25 43 76 174
100 258 9 34 20 62 24 62 3 0 14 -18 24 -39 21 -48 33 -189 25 -300 -6 -69
-13 -92 -63 -195 -49 -99 -69 -128 -135 -195 -64 -65 -95 -87 -173 -124 -52
-26 -114 -51 -139 -56 -72 -17 -168 -13 -258 10 -45 12 -85 19 -88 17 -3 -3
11 -61 30 -129 19 -68 38 -146 41 -174 15 -113 68 -424 95 -560 33 -167 105
-341 174 -422 49 -57 170 -136 247 -162 106 -35 206 -24 324 37 119 61 236
215 285 375 43 142 54 239 54 522 0 297 -8 378 -79 770 -20 110 -43 236 -51
280 -8 44 -20 107 -28 140 -7 33 -26 114 -40 180 -15 66 -35 150 -46 186 -11
36 -20 71 -20 78 0 17 96 117 134 141 30 18 49 24 176 55 250 60 469 228 594
456 95 174 156 402 156 588 l0 44 -102 -7 c-177 -12 -442 -79 -583 -146 -181
-87 -372 -277 -494 -492 -18 -32 -36 -60 -40 -63 -5 -2 -23 3 -41 11 -19 10
-60 17 -103 18 l-72 1 -13 -45 c-7 -25 -17 -55 -22 -67 l-9 -23 -53 31 c-68
40 -129 63 -205 78 -51 10 -78 9 -154 -4 -123 -22 -130 -12 -33 50 50 32 59
44 90 113 92 208 222 387 348 477 164 117 407 189 709 211 l97 7 33 46 c53 73
74 109 125 216 46 95 59 134 98 300 22 92 21 437 -1 615 -8 68 -15 129 -15
135 0 18 -25 47 -33 39z m-1502 -1164 c-8 -12 -87 -51 -93 -46 -3 4 6 10 68
43 30 16 33 16 25 3z m1605 -559 c0 -5 -12 -12 -27 -16 -16 -3 -79 -31 -141
-61 -168 -81 -233 -149 -374 -384 -101 -169 -178 -275 -197 -268 -10 3 35 132
96 278 97 232 266 373 528 440 80 20 115 24 115 11z m-1260 -921 c36 -36 19
-86 -34 -95 -39 -8 -70 6 -87 37 -10 19 -8 25 20 50 37 33 73 36 101 8z
m-1028 -699 c36 -41 35 -63 -4 -97 -95 -79 -203 -72 -273 20 -47 61 -8 107
100 116 96 8 144 -3 177 -39z"/>
<path d="M5145 7370 c-21 -23 -42 -29 -216 -64 -194 -39 -385 -120 -513 -216
-65 -49 -165 -161 -219 -244 -43 -66 -97 -177 -97 -199 0 -11 20 -16 78 -19
84 -6 167 -38 178 -70 9 -30 21 -20 34 29 6 27 32 90 56 141 37 77 59 107 127
175 101 100 189 164 327 236 104 55 199 135 258 219 26 35 16 44 -13 12z"/>
<path d="M2390 6344 c-115 -39 -278 -113 -380 -173 -36 -21 -97 -56 -136 -79
-101 -59 -334 -236 -437 -332 -229 -215 -436 -500 -595 -820 -132 -263 -212
-495 -265 -762 -43 -212 -52 -319 -51 -563 1 -242 14 -375 60 -630 22 -122 43
-194 132 -455 26 -75 187 -388 255 -495 126 -199 380 -498 529 -623 181 -151
417 -307 607 -403 133 -67 424 -184 529 -213 397 -112 741 -147 1088 -111 276
29 415 60 710 157 267 87 494 204 749 386 251 180 404 329 592 577 221 293
363 583 468 954 78 279 126 750 106 1036 -27 379 -135 783 -305 1140 -188 397
-451 718 -809 988 -84 64 -91 67 -143 67 -49 0 -56 -3 -66 -25 -13 -30 0 -97
37 -181 21 -47 29 -54 118 -104 76 -41 115 -72 180 -139 102 -106 277 -321
341 -420 173 -268 332 -703 413 -1131 26 -139 26 -652 0 -790 -55 -291 -64
-330 -114 -490 -147 -470 -450 -917 -825 -1217 -40 -32 -78 -63 -84 -69 -24
-21 -242 -164 -329 -214 -111 -64 -363 -170 -470 -198 -379 -100 -635 -142
-854 -142 -170 0 -432 44 -746 125 -136 35 -184 51 -292 96 -90 38 -108 47
-248 124 -222 122 -464 307 -646 492 -302 308 -539 693 -637 1035 -53 186
-100 440 -111 608 -6 85 -13 184 -16 220 -3 36 0 139 6 230 31 511 197 1005
458 1368 302 420 606 685 1016 887 105 51 238 111 297 132 60 21 108 41 108
45 0 4 -23 29 -51 55 -28 26 -55 58 -60 70 -5 13 -12 23 -16 23 -5 0 -55 -16
-113 -36z"/>
<path d="M2780 6086 c-317 -91 -534 -197 -830 -406 -125 -88 -333 -288 -473
-455 -147 -174 -348 -507 -401 -665 -8 -25 -24 -70 -36 -100 -67 -180 -112
-472 -126 -817 -7 -169 -2 -233 20 -233 20 0 40 36 82 142 46 118 80 185 161
323 121 204 189 273 508 512 149 112 276 174 435 214 85 21 117 23 310 23 118
0 262 -6 320 -13 58 -6 281 -14 497 -18 360 -6 393 -5 399 10 3 9 -3 65 -13
124 l-19 108 -45 -3 c-24 -1 -80 -10 -124 -19 -125 -26 -271 -21 -370 12 -98
32 -145 60 -211 123 -124 119 -164 198 -164 321 1 138 38 222 177 402 109 139
243 332 243 348 0 29 -149 102 -204 100 -12 0 -73 -15 -136 -33z"/>
<path d="M5070 5575 c0 -2 11 -38 25 -80 14 -41 32 -123 40 -182 8 -60 24
-155 35 -213 52 -270 82 -516 120 -1005 6 -71 22 -175 36 -230 76 -300 97
-488 92 -822 -4 -262 -5 -270 -35 -383 -40 -148 -97 -284 -161 -391 -129 -213
-122 -195 -137 -341 -8 -73 -15 -164 -15 -201 l0 -69 53 42 c77 63 275 268
327 339 207 282 368 630 443 951 101 431 95 818 -17 1260 -124 483 -317 840
-655 1209 -83 90 -151 142 -151 116z"/>
<path d="M2283 4469 c-101 -11 -251 -60 -319 -105 -258 -171 -510 -693 -574
-1189 -35 -270 -37 -596 -5 -750 28 -136 16 -175 -36 -117 -50 54 -75 111
-110 257 -20 81 -23 116 -23 340 0 305 22 456 105 715 31 97 147 345 204 435
49 78 50 82 20 55 -92 -83 -368 -452 -414 -555 -28 -63 -63 -185 -105 -367
-28 -118 -21 -225 22 -378 64 -223 125 -357 214 -472 24 -30 59 -83 78 -117
19 -34 55 -93 80 -130 58 -88 453 -496 473 -488 47 18 108 157 157 355 27 106
36 132 50 132 10 0 23 -7 31 -16 11 -13 9 -14 -16 -8 -22 5 -27 4 -23 -7 3 -8
18 -56 33 -108 36 -125 33 -240 -8 -314 -15 -26 -36 -73 -46 -102 l-19 -55 44
-19 c24 -11 58 -31 76 -44 54 -41 167 -97 373 -187 82 -36 147 -60 164 -60 23
0 73 79 120 188 16 37 50 111 76 165 26 54 44 102 39 106 -12 10 -166 74 -229
96 -27 9 -78 30 -113 46 -35 16 -66 29 -70 29 -14 0 -123 60 -167 91 -45 32
-82 77 -77 93 2 5 -17 70 -42 145 -54 163 -71 233 -96 409 -24 160 -25 280 -5
478 52 503 234 913 545 1225 69 70 153 147 188 171 l62 45 -102 8 c-57 4 -118
7 -137 6 -129 -9 -410 -261 -551 -491 -167 -274 -227 -458 -309 -940 -35 -204
-46 -449 -33 -691 16 -273 15 -324 -1 -337 -33 -27 -82 44 -110 158 -52 217
-61 296 -60 555 0 326 33 562 108 790 87 263 147 393 261 565 80 123 284 319
384 370 22 11 40 23 40 25 0 6 -45 4 -147 -6z"/>
<path d="M3280 4448 c-116 -11 -145 -22 -255 -101 -93 -66 -152 -123 -241
-235 -224 -279 -340 -530 -398 -857 -49 -279 -50 -295 -50 -560 0 -285 14
-403 69 -570 53 -160 69 -175 285 -265 175 -72 196 -76 148 -22 -105 116 -144
216 -205 527 -25 130 -25 578 0 715 91 482 291 877 613 1206 43 44 105 99 137
122 31 24 57 45 57 47 0 6 -25 5 -160 -7z"/>
<path d="M3590 4384 c-85 -60 -110 -84 -254 -244 -176 -196 -314 -415 -375
-595 -11 -33 -30 -85 -41 -115 -36 -93 -49 -148 -80 -324 -56 -319 -60 -459
-24 -786 26 -239 67 -407 129 -530 25 -48 61 -73 152 -105 l52 -18 21 -91 c13
-52 36 -114 55 -146 29 -49 34 -70 49 -199 9 -80 19 -147 22 -150 3 -3 96 -6
207 -5 148 0 219 5 267 16 36 9 88 19 116 23 48 6 52 9 58 37 3 17 6 60 6 96
0 57 24 290 36 349 3 14 30 35 86 66 159 86 183 100 243 142 86 61 150 120
201 186 62 81 164 237 164 251 0 8 3 9 11 1 15 -15 -14 -108 -69 -223 -39 -80
-60 -109 -131 -180 -85 -84 -150 -131 -283 -204 -60 -33 -71 -44 -70 -76 0
-42 25 -377 28 -382 3 -4 15 -3 27 2 12 4 67 23 122 40 117 37 502 217 510
237 12 32 -7 35 -197 27 l-189 -7 20 52 c27 71 47 100 79 112 58 23 191 51
266 57 l80 7 13 85 c7 47 14 137 16 201 l2 116 62 80 c104 134 190 329 243
548 20 84 30 366 20 580 -10 202 -24 372 -31 380 -3 2 -22 -40 -43 -93 -63
-155 -138 -275 -236 -372 -134 -134 -247 -184 -415 -184 -220 -1 -418 88 -551
246 -146 174 -228 404 -249 692 -4 55 -14 118 -23 140 -11 30 -15 78 -15 174
0 91 -3 132 -11 132 -6 -1 -40 -21 -76 -46z m-3 -341 c-145 -305 -155 -329
-235 -568 -118 -347 -157 -580 -157 -915 1 -188 6 -247 50 -550 8 -58 20 -145
26 -195 6 -49 13 -95 14 -101 4 -15 84 -22 342 -30 l211 -6 -4 -120 c-2 -66
-7 -124 -10 -129 -3 -5 -133 -9 -289 -9 l-284 0 -6 47 c-3 27 -8 68 -11 93 -3
25 -11 70 -19 100 -7 30 -21 98 -30 150 -9 52 -30 149 -45 215 -68 283 -89
680 -50 943 55 374 217 795 408 1057 68 94 139 171 149 161 3 -3 -24 -67 -60
-143z"/>
<path d="M3044 1459 c-17 -21 -123 -272 -130 -306 -6 -30 -5 -30 48 -37 29 -4
72 -16 96 -26 l42 -19 0 21 c0 37 -31 322 -38 352 -6 23 -9 26 -18 15z"/>
</g>
</svg>
