<?xml version="1.0" standalone="no"?>
<!DOCTYPE svg PUBLIC "-//W3C//DTD SVG 20010904//EN"
 "http://www.w3.org/TR/2001/REC-SVG-20010904/DTD/svg10.dtd">
<svg version="1.0" xmlns="http://www.w3.org/2000/svg"
 width="130" height="50" viewBox="0 0 130 50" fill="none"
>
<metadata>
Created by potrace 1.10, written by Peter Selinger 2001-2011
</metadata>
<g transform="translate(0.000000,232.000000) scale(0.100000,-0.100000)"
fill="#000000" stroke="none">
<path d="M2223 2301 c3 -14 14 -71 23 -128 12 -73 21 -103 31 -103 7 0 23 -21
34 -46 10 -26 40 -69 64 -96 44 -49 54 -71 36 -82 -11 -7 -41 27 -86 97 -20
32 -45 67 -56 78 -33 33 -22 -3 21 -69 84 -131 84 -147 -3 -92 -72 45 -144 80
-167 80 -24 0 -27 -32 -5 -70 8 -14 14 -29 15 -34 0 -5 -33 -6 -74 -4 -59 4
-85 11 -129 36 -54 30 -55 30 -54 9 1 -12 -3 -33 -7 -47 l-8 -25 23 21 c20 18
28 20 49 11 62 -26 88 -33 133 -36 27 -1 54 3 62 9 8 7 21 10 30 7 13 -5 12
-1 -1 34 -9 22 -14 42 -11 46 4 3 47 -15 97 -41 79 -41 93 -45 113 -34 12 7
28 11 34 10 7 -2 23 4 36 13 23 15 26 14 53 -17 l28 -33 29 29 c25 25 28 35
24 69 l-5 39 24 -33 c19 -27 32 -85 23 -111 0 -2 16 -30 35 -62 41 -69 43 -76
17 -76 -11 0 -23 -5 -26 -10 -4 -6 -15 -8 -26 -5 -15 5 -19 1 -19 -20 0 -20 4
-26 15 -21 8 3 15 0 15 -7 0 -8 3 -7 9 2 5 8 7 20 5 26 -4 9 7 10 41 5 67 -10
72 5 25 76 -22 32 -49 70 -60 82 -21 25 -26 57 -10 67 6 3 10 1 10 -6 0 -10 3
-10 11 -2 14 14 -35 89 -123 189 -35 39 -78 88 -96 109 -25 29 -36 35 -42 25
-17 -28 11 -87 81 -167 63 -72 82 -108 74 -140 l-6 -24 -30 25 c-93 79 -179
218 -224 367 -16 54 -24 70 -21 44 l5 -40 -14 44 c-16 48 -32 71 -22 32z"/>
<path d="M2321 2299 c-3 -20 32 -108 46 -113 23 -9 26 -2 12 28 -9 19 -15 23
-21 14 -6 -10 -8 -10 -8 2 -1 15 -28 80 -29 69z"/>
<path d="M660 2098 c-32 -12 -81 -58 -74 -70 3 -4 19 1 35 13 33 23 50 18 31
-9 -25 -35 -33 -67 -28 -112 3 -25 8 -79 12 -120 9 -98 47 -227 74 -254 l22
-21 -16 33 c-9 18 -14 38 -10 44 5 7 3 8 -6 3 -10 -6 -11 -1 -6 21 5 22 4 26
-4 14 -9 -12 -10 -7 -6 20 4 24 3 29 -3 15 -9 -22 -23 50 -41 209 l-9 89 31
48 c17 27 35 46 39 43 14 -8 10 16 -4 30 -9 9 -20 10 -37 4z"/>
<path d="M751 2075 c-70 -80 -75 -155 -26 -359 15 -60 25 -125 23 -145 -2 -26
3 -42 18 -58 l20 -22 -4 57 c-2 31 1 68 7 82 l10 25 1 -25 2 -25 7 25 c5 18 2
29 -10 40 -15 14 -17 35 -15 160 2 151 17 221 52 234 10 4 13 2 8 -7 -4 -6 3
-3 15 7 19 18 20 21 6 29 -9 5 -32 10 -51 12 -28 2 -40 -4 -63 -30z m59 -13
c0 -4 -4 -12 -9 -17 -17 -20 -31 -106 -32 -214 -1 -61 -6 -111 -10 -111 -13 0
-41 142 -40 198 2 61 14 98 43 130 21 22 48 30 48 14z"/>
<path d="M891 2057 c-40 -64 -44 -91 -52 -307 -4 -118 -10 -225 -14 -237 -10
-31 9 -29 23 2 8 17 12 91 12 208 0 188 9 243 47 307 14 24 24 30 52 30 19 0
42 -7 52 -16 17 -15 17 -18 -2 -53 -22 -43 -39 -125 -29 -141 4 -6 10 13 13
43 7 66 42 141 63 133 19 -7 18 9 -3 29 -23 23 -58 35 -103 35 -33 0 -41 -5
-59 -33z"/>
<path d="M468 2042 c-136 -69 -198 -136 -232 -251 -21 -70 -21 -214 0 -322 19
-108 23 -121 35 -113 10 6 9 13 -16 166 -22 140 -9 257 38 338 22 38 86 110
98 110 4 0 29 13 56 30 26 16 59 31 73 32 31 4 49 19 43 35 -7 18 -10 17 -95
-25z"/>
<path d="M1094 2043 c-8 -21 -19 -45 -24 -54 -5 -9 -14 -45 -20 -79 -6 -34
-16 -74 -21 -88 -9 -25 -9 -26 6 -11 14 14 45 101 60 173 5 22 24 46 36 46 15
0 10 -36 -11 -84 -11 -26 -20 -50 -21 -54 -2 -10 -3 -14 -48 -143 -33 -100
-74 -193 -129 -296 -24 -44 -5 -36 22 10 40 67 92 194 151 361 69 195 73 207
75 181 1 -20 1 -20 12 -1 9 16 6 24 -21 48 -17 15 -36 28 -42 28 -5 0 -17 -17
-25 -37z"/>
<path d="M1180 1893 c-82 -246 -135 -369 -216 -500 -39 -64 -11 -52 33 15 69
104 133 250 215 497 22 66 39 100 48 100 24 0 23 -37 -2 -101 -12 -32 -23 -65
-24 -73 -2 -7 -11 -34 -22 -60 -11 -25 -22 -64 -26 -86 -3 -22 19 29 49 114
30 85 61 162 70 170 15 15 15 14 9 -4 -5 -17 -4 -16 11 4 15 19 15 25 4 32 -8
5 -20 9 -28 9 -7 0 -11 6 -8 13 3 7 -3 13 -12 13 -9 1 -23 4 -32 8 -14 6 -25
-19 -69 -151z"/>
<path d="M1386 2016 c3 -8 -6 -30 -20 -50 -14 -21 -43 -85 -65 -144 -23 -59
-54 -132 -69 -163 -16 -32 -24 -55 -18 -53 20 8 56 70 82 140 39 107 93 214
110 221 29 11 32 -18 7 -64 -14 -24 -23 -47 -19 -50 3 -4 6 -1 6 5 0 7 16 30
36 51 34 39 35 41 20 69 -15 30 -80 65 -70 38z"/>
<path d="M1493 1966 c9 -41 8 -47 -17 -76 -33 -39 -60 -90 -52 -98 3 -3 7 -3
9 -1 47 66 83 109 92 108 5 0 5 -3 -2 -5 -7 -3 -10 -11 -7 -18 3 -7 -5 -33
-17 -57 -16 -30 -25 -68 -29 -128 -4 -48 -5 -88 -3 -90 9 -12 23 59 18 90 -6
35 10 119 24 129 12 8 41 77 41 97 0 15 2 16 10 3 8 -12 10 -12 10 5 -1 24
-16 45 -50 68 -36 25 -38 22 -27 -27z"/>
<path d="M1610 1945 c0 -11 -18 -56 -40 -99 -35 -71 -40 -88 -40 -150 0 -53
-5 -79 -20 -103 -19 -31 -19 -33 -1 -33 20 0 41 39 47 90 3 19 10 38 17 42 6
4 8 10 5 14 -18 18 98 194 128 194 8 0 14 4 14 8 0 11 -45 32 -68 32 -10 0
-23 5 -30 12 -9 9 -12 8 -12 -7z m50 -46 c0 -6 -13 -30 -29 -53 -16 -23 -36
-58 -44 -77 -13 -31 -14 -32 -21 -12 -12 37 53 153 86 153 4 0 8 -5 8 -11z"/>
<path d="M1716 1863 c-49 -68 -111 -186 -95 -181 8 2 37 43 64 91 56 98 81
114 119 78 21 -20 24 -20 30 -6 3 9 6 19 6 21 0 7 -64 44 -77 44 -7 0 -28 -21
-47 -47z"/>
<path d="M563 1686 c12 -24 23 -43 25 -42 6 7 -24 80 -35 83 -8 3 -4 -13 10
-41z"/>
<path d="M2520 1596 c-5 -15 -10 -37 -10 -49 1 -14 7 -6 16 21 17 47 11 72 -6
28z"/>
<path d="M2720 1571 c-8 -5 -35 -12 -60 -16 -48 -8 -100 -30 -100 -44 0 -17
14 -20 29 -7 14 12 111 36 147 36 7 0 29 -21 49 -46 42 -56 47 -100 13 -113
-25 -9 -92 -4 -123 8 -11 5 -47 17 -80 27 -33 10 -64 21 -70 25 -5 4 -39 10
-75 14 -59 6 -74 4 -150 -25 -47 -18 -90 -37 -97 -42 -28 -22 -65 -18 -137 17
-40 19 -82 35 -93 35 -10 0 -24 5 -30 11 -6 6 -21 9 -34 7 -23 -3 -23 -4 9
-21 18 -10 60 -26 93 -37 34 -10 72 -28 85 -41 12 -12 33 -21 46 -21 33 0 159
52 152 63 -3 5 2 6 10 3 9 -3 16 -1 16 5 0 6 7 8 17 4 9 -4 14 -2 10 3 -14 23
131 6 258 -30 130 -37 227 -48 247 -28 24 24 11 82 -32 140 -41 55 -68 82 -79
82 -3 0 -13 -4 -21 -9z"/>
<path d="M788 1448 c23 -23 13 -66 -25 -109 -30 -33 -34 -42 -22 -50 8 -5 23
-6 34 -3 38 12 87 5 190 -27 22 -7 121 -15 219 -18 l180 -6 7 -28 c14 -51 49
-77 49 -36 0 11 -13 34 -30 52 -16 18 -30 35 -30 39 0 4 -75 7 -167 6 -141 0
-178 3 -233 20 -36 11 -82 23 -103 27 -43 7 -53 22 -39 62 7 21 5 35 -6 56 -9
15 -21 27 -26 27 -6 0 -5 -5 2 -12z"/>
<path d="M731 1429 c-19 -21 -35 -61 -64 -159 -9 -30 -28 -68 -42 -84 -30 -34
-30 -37 -8 -29 11 5 14 3 8 -6 -6 -10 -3 -11 13 -2 12 6 24 16 27 21 3 6 17 7
31 4 13 -3 24 -2 24 4 0 20 -43 22 -57 2 -26 -37 -32 -20 -8 23 14 23 29 67
36 97 13 63 28 95 59 128 11 12 16 22 11 22 -6 0 -19 -9 -30 -21z"/>
<path d="M1860 1413 c1 -18 37 -52 63 -58 15 -4 27 -5 27 -3 0 3 -20 19 -45
37 -25 18 -45 29 -45 24z"/>
<path d="M210 1333 c-91 -12 -210 -57 -210 -80 0 -10 6 -13 18 -10 233 73 294
74 350 5 25 -32 32 -49 32 -84 0 -38 -5 -49 -40 -83 -37 -36 -39 -41 -29 -65
7 -14 27 -35 46 -46 31 -18 33 -23 33 -72 0 -66 -32 -119 -90 -148 -46 -24
-73 -25 -89 -6 -10 11 -8 16 6 20 31 10 91 75 103 112 24 70 -11 120 -82 118
-24 0 -58 -4 -75 -8 -30 -7 -33 -11 -34 -49 -3 -89 0 -119 16 -144 15 -22 13
-65 -2 -50 -3 4 -12 -1 -19 -11 -11 -16 -14 -16 -34 3 -21 19 -22 25 -16 135
6 118 8 208 7 270 -1 48 -30 66 -71 45 -17 -9 -30 -22 -30 -31 0 -13 5 -12 29
5 36 26 54 27 47 4 -2 -10 -8 -81 -11 -158 -4 -77 -8 -173 -10 -213 -4 -81 -4
-81 73 -95 29 -6 35 -4 39 14 4 14 10 18 22 13 66 -29 152 -4 206 59 31 36 35
38 35 18 0 -52 49 -91 114 -91 29 0 41 7 67 40 26 33 35 38 51 29 10 -5 23 -7
28 -4 6 3 10 -5 10 -18 0 -21 8 -28 44 -40 51 -17 66 -9 66 35 0 16 9 56 20
89 12 34 19 66 17 72 -5 17 -58 -102 -64 -145 -7 -47 -22 -48 -60 -5 -22 25
-36 32 -67 33 -32 0 -45 -6 -71 -34 l-32 -35 -39 23 c-21 13 -41 28 -43 33 -2
5 -13 18 -26 29 -19 16 -21 26 -17 68 6 64 -11 103 -54 126 -19 10 -34 20 -34
21 0 2 18 19 39 39 69 62 67 124 -8 203 -27 28 -52 51 -57 51 -5 0 -25 4 -44
8 -19 4 -46 6 -60 5z m92 -370 c58 -53 -37 -197 -109 -164 -23 10 -24 15 -21
88 l3 78 35 6 c59 11 73 10 92 -8z"/>
<path d="M237 903 c9 -70 22 -88 23 -31 0 50 -7 78 -21 78 -5 0 -6 -21 -2 -47z"/>
<path d="M1943 1331 c-5 -3 -15 -33 -22 -66 -45 -209 -96 -396 -121 -441 -44
-78 -46 -109 -15 -187 15 -38 30 -66 32 -63 3 3 6 30 8 61 1 31 -1 52 -5 45
-5 -8 -14 -3 -28 15 -22 27 -20 53 1 38 7 -4 30 -8 52 -8 43 0 41 -3 92 109
17 37 20 38 70 41 l52 2 7 -68 c7 -73 11 -80 62 -97 26 -9 38 -8 62 6 21 12
33 14 38 6 4 -6 17 -16 30 -23 20 -11 29 -9 66 13 98 58 123 125 82 223 -14
33 -28 83 -32 111 -7 54 -17 62 -79 62 -42 -1 -65 -21 -65 -60 0 -18 -6 -58
-14 -89 -28 -114 -28 -108 -1 -108 14 0 29 5 35 12 16 20 36 88 32 113 -4 27
-22 19 -23 -11 0 -30 -35 -112 -41 -101 -4 5 9 52 26 104 28 81 37 96 60 105
32 11 41 1 50 -57 4 -22 15 -57 26 -79 39 -75 21 -146 -49 -192 l-40 -26 -45
20 c-38 16 -46 25 -46 46 0 22 -2 24 -15 13 -14 -12 -14 -15 1 -31 14 -16 14
-18 -6 -29 -16 -9 -25 -8 -38 2 -20 15 -37 39 -38 53 -5 74 -37 109 -99 108
-63 -1 -87 -21 -108 -86 -21 -67 -37 -83 -67 -67 -12 6 -19 17 -16 23 55 125
88 240 122 427 9 47 21 88 27 92 17 11 67 10 67 -2 0 -5 -8 -13 -17 -19 -12
-6 -22 -32 -29 -73 -6 -35 -18 -96 -25 -137 -13 -72 -13 -73 10 -92 32 -26 57
-24 87 7 26 25 26 27 23 149 -4 110 -6 126 -24 139 -34 24 -10 28 36 6 l44
-22 0 -138 c0 -122 2 -140 19 -159 15 -16 17 -24 8 -33 -13 -13 -16 -47 -6
-72 10 -25 25 -8 18 20 -4 16 -1 31 10 43 15 17 15 20 -5 44 -19 25 -20 38
-18 162 2 151 -1 159 -73 196 -37 19 -129 32 -145 20z m98 -88 c2 -10 2 -72
-1 -138 l-5 -120 -33 -2 c-37 -2 -37 -16 -7 132 8 39 17 87 20 108 6 39 20 49
26 20z"/>
<path d="M2638 1323 c-10 -2 -20 -14 -23 -26 -15 -65 -26 -167 -31 -292 -7
-136 -14 -175 -34 -175 -15 0 -12 109 5 174 14 53 14 61 0 77 -21 22 -54 30
-89 21 -27 -7 -27 -9 -32 -100 -3 -56 -1 -92 4 -92 13 0 32 55 32 92 0 43 17
68 43 64 25 -4 24 -2 5 -119 -10 -67 -10 -82 2 -104 21 -36 33 -38 66 -9 28
23 29 27 27 113 -2 99 23 311 39 330 16 19 73 16 99 -6 22 -18 24 -27 23 -103
-1 -92 -11 -123 -74 -228 -36 -60 -39 -69 -30 -101 6 -20 19 -44 30 -54 18
-16 20 -16 49 4 66 47 78 72 86 175 7 99 13 110 54 99 14 -4 20 -11 17 -22
-29 -94 -33 -177 -11 -208 13 -19 20 -21 43 -12 l27 10 -27 -27 c-25 -25 -29
-27 -55 -15 -68 32 -79 31 -114 -5 -18 -19 -40 -34 -49 -34 -17 0 -100 39
-123 58 -10 9 -17 7 -30 -8 -22 -26 -39 -25 -75 5 -32 26 -52 32 -52 14 0 -25
22 -46 60 -59 37 -12 43 -12 70 8 29 22 29 22 40 2 14 -26 61 -50 99 -50 22 0
44 11 72 37 23 21 43 32 47 27 12 -17 70 -36 91 -29 33 10 71 63 71 98 -1 31
-1 31 -17 12 -15 -20 -15 -20 -10 3 7 30 0 28 -18 -8 -9 -16 -21 -30 -27 -30
-14 0 -4 153 13 198 12 29 11 34 -9 54 -16 17 -33 22 -63 22 -22 -1 -42 -3
-44 -6 -2 -2 -7 -52 -11 -111 -7 -107 -7 -108 -45 -150 -37 -41 -39 -41 -54
-23 -23 30 -18 59 19 115 53 78 76 150 76 237 0 49 -6 86 -16 105 -23 45 -87
68 -146 52z"/>
<path d="M2451 1256 c-23 -28 -9 -69 30 -90 35 -19 38 -19 63 -3 16 11 26 27
26 42 0 48 -90 86 -119 51z m86 -42 c10 -26 -12 -38 -35 -18 -12 10 -19 21
-16 26 9 14 44 9 51 -8z"/>
<path d="M2681 1173 c-14 -126 -18 -203 -9 -203 8 0 14 32 29 165 14 132 14
135 0 135 -5 0 -14 -44 -20 -97z"/>
<path d="M2820 1250 c-18 -33 -4 -68 35 -87 31 -15 36 -15 59 1 50 32 23 91
-47 103 -29 4 -37 2 -47 -17z m90 -39 c0 -29 -18 -36 -41 -15 -27 24 -24 34
11 34 23 0 30 -5 30 -19z"/>
<path d="M197 1245 c-48 -17 -53 -21 -38 -38 8 -11 9 -27 0 -66 -10 -46 -9
-55 7 -72 9 -10 25 -19 36 -19 18 0 91 41 114 64 33 34 46 110 22 134 -16 16
-93 15 -141 -3z m133 -39 c0 -53 -53 -107 -127 -130 -20 -7 -23 -4 -23 23 0
16 5 42 11 58 8 22 7 30 -7 40 -10 7 -16 14 -13 17 13 11 70 25 112 25 l47 1
0 -34z"/>
<path d="M238 1204 c-5 -4 -8 -26 -8 -48 1 -33 3 -38 11 -23 11 19 8 83 -3 71z"/>
<path d="M1830 1203 c-8 -3 -33 -13 -55 -23 -22 -10 -52 -21 -67 -24 -44 -10
-33 -26 17 -26 25 0 45 5 45 11 0 5 -4 7 -10 4 -5 -3 -10 -2 -10 3 0 5 23 12
50 16 34 5 48 11 44 18 -5 7 -2 9 8 6 9 -4 15 0 15 8 0 14 -11 16 -37 7z"/>
<path d="M2723 1127 c-6 -45 -10 -84 -8 -85 9 -10 28 47 32 98 9 90 -12 79
-24 -13z"/>
<path d="M1630 1125 c0 -3 4 -13 10 -23 40 -72 72 -161 71 -198 -2 -33 2 -42
16 -46 16 -4 18 1 18 33 0 42 -14 43 -16 1 -1 -18 -3 -21 -6 -9 -7 27 6 69 18
61 6 -3 27 11 47 31 31 31 32 35 10 20 -16 -9 -28 -21 -28 -26 0 -5 -5 -9 -12
-9 -7 0 2 15 18 33 49 52 85 121 54 102 -5 -3 -10 -1 -10 6 0 7 -13 1 -28 -14
-16 -15 -40 -27 -54 -27 -29 0 -78 35 -78 56 0 8 -7 14 -15 14 -8 0 -15 -2
-15 -5z m139 -111 c-27 -29 -45 -31 -59 -5 -11 22 -7 25 47 28 l35 2 -23 -25z"/>
<path d="M874 1095 c-13 -9 -23 -30 -27 -57 -4 -24 -10 -54 -14 -68 -6 -22 -5
-23 10 -12 9 8 21 30 28 50 16 49 27 62 55 62 28 0 29 -7 9 -80 -30 -110 -15
-190 34 -190 32 0 49 32 57 108 4 42 16 91 28 115 18 36 25 42 51 41 17 -1 50
-2 75 -3 l45 -1 0 -183 c-1 -195 -4 -212 -54 -254 -38 -32 -47 -28 -17 8 29
34 35 93 12 124 -13 18 -14 18 -20 -3 -4 -12 -4 -42 -1 -66 9 -61 -8 -69 -51
-22 -51 55 -81 47 -68 -20 5 -25 16 -41 38 -55 45 -27 80 -24 121 12 61 54 65
70 65 246 0 87 4 172 9 190 13 44 -6 57 -83 59 -33 1 -71 5 -83 9 -48 15 -89
-64 -100 -192 -4 -52 -11 -77 -24 -89 -17 -15 -18 -15 -25 11 -4 16 2 70 16
133 l22 105 -23 18 c-29 22 -58 24 -85 4z"/>
<path d="M1409 1099 c-8 -5 -33 -9 -56 -9 l-42 0 -17 -57 c-12 -38 -18 -93
-18 -160 -1 -94 1 -103 23 -127 46 -49 125 -47 161 4 32 45 14 58 -24 16 -39
-41 -61 -40 -108 7 -31 31 -31 31 -25 117 6 90 26 154 52 163 39 16 111 19
122 6 18 -23 21 -79 7 -148 -10 -57 -10 -68 3 -83 11 -12 24 -16 39 -12 13 4
24 2 24 -4 0 -14 -27 -23 -47 -15 -17 5 -17 5 0 -13 16 -17 20 -18 45 -4 19
11 28 25 30 49 2 22 0 31 -7 26 -6 -3 -11 -1 -11 6 0 6 -12 -1 -27 -17 -23
-25 -28 -26 -31 -11 -2 9 1 40 7 68 16 73 13 120 -7 154 -21 33 -72 57 -93 44z"/>
<path d="M511 1091 c-39 -5 -46 -10 -57 -41 -16 -45 -18 -93 -3 -88 7 2 20 24
29 48 14 36 24 46 51 53 21 6 47 5 71 -2 31 -10 38 -17 44 -46 3 -19 0 -66 -7
-105 -11 -66 -11 -71 7 -85 46 -35 72 -3 84 106 6 46 10 89 10 95 0 11 48 29
56 22 1 -2 -4 -48 -11 -103 -8 -54 -13 -101 -11 -103 6 -5 27 60 33 98 2 19 8
51 13 69 12 45 -7 68 -61 73 -44 4 -54 -4 -55 -42 0 -14 -1 -62 -2 -107 -2
-60 -6 -86 -18 -98 -25 -25 -38 -4 -25 41 14 51 14 146 0 177 -19 43 -52 51
-148 38z"/>
<path d="M1595 1058 c-4 -24 -14 -69 -22 -101 -8 -32 -13 -61 -10 -63 6 -6 34
100 42 159 8 58 -1 63 -10 5z"/>
<path d="M1110 1035 c-30 -36 -51 -174 -34 -219 12 -31 19 -15 20 47 2 86 31
183 50 165 6 -7 -19 -168 -33 -205 -6 -17 -5 -17 15 1 23 20 38 63 45 134 3
32 0 49 -15 67 -22 29 -31 31 -48 10z"/>
<path d="M537 1032 c-10 -15 -27 -135 -27 -189 0 -84 45 -110 83 -46 18 32 18
33 -2 78 -27 62 -44 58 -25 -7 13 -42 13 -55 3 -75 -7 -12 -16 -23 -20 -23
-11 0 -15 96 -7 185 6 79 5 95 -5 77z"/>
<path d="M1376 1023 c-14 -49 -26 -176 -20 -208 9 -50 38 -64 70 -34 31 29 30
63 -1 114 -21 34 -24 36 -25 17 0 -12 6 -37 14 -55 13 -33 8 -69 -13 -81 -18
-12 -24 42 -17 155 7 102 4 132 -8 92z"/>
<path d="M1611 1008 c0 -15 -8 -48 -17 -74 -8 -25 -14 -48 -11 -50 8 -8 38
105 34 128 -4 21 -4 20 -6 -4z"/>
<path d="M590 957 c0 -43 4 -66 10 -62 13 8 13 95 0 115 -7 10 -10 -5 -10 -53z"/>
<path d="M1431 962 c1 -35 6 -65 11 -68 16 -10 13 104 -3 121 -7 7 -9 -12 -8
-53z"/>
<path d="M2304 909 c17 -96 18 -109 6 -124 -18 -22 -32 -8 -29 29 3 30 0 36
-21 36 -16 0 -12 -48 6 -75 20 -31 35 -31 62 -2 26 27 28 72 8 121 -20 49 -40
58 -32 15z"/>
<path d="M840 811 c0 -30 38 -70 75 -77 26 -5 41 -1 64 15 28 20 32 21 60 6
39 -20 64 -19 84 3 24 26 23 50 -1 29 -23 -21 -36 -21 -66 -2 -27 18 -58 15
-84 -8 -10 -9 -25 -17 -34 -17 -16 0 -68 47 -68 61 0 5 -7 9 -15 9 -8 0 -15
-8 -15 -19z"/>
<path d="M655 721 c8 -16 37 -54 65 -85 41 -43 50 -60 45 -77 -5 -15 -4 -19 4
-15 26 16 10 59 -46 126 -65 76 -92 97 -68 51z"/>
<path d="M1533 689 c0 -25 -3 -51 -7 -58 -7 -10 -4 -11 13 -2 16 9 21 9 21 -1
0 -9 3 -9 11 -1 8 8 7 24 -5 59 l-15 49 5 -40 4 -40 -14 40 -15 40 2 -46z"/>
<path d="M833 703 c-18 -7 -16 -28 8 -76 23 -46 103 -126 128 -128 9 -1 25 -3
36 -4 94 -14 123 -14 128 -1 8 20 -14 26 -87 26 -78 0 -120 25 -157 93 -14 26
-29 44 -33 40 -5 -5 -6 1 -2 12 7 24 -4 44 -21 38z"/>
<path d="M1454 695 c-9 -22 9 -160 26 -200 10 -23 14 -26 17 -12 5 20 17 22
35 5 7 -7 22 -13 32 -13 11 0 21 -6 24 -13 3 -11 -8 -13 -54 -8 -33 3 -90 7
-129 9 -66 2 -70 1 -73 -20 l-3 -23 216 0 c169 0 216 3 212 13 -2 6 -19 12
-38 12 -20 1 -49 11 -66 23 -17 12 -46 25 -65 28 -45 8 -78 25 -78 40 0 7 -4
14 -10 16 -5 2 -13 35 -16 73 -6 73 -18 101 -30 70z"/>
<path d="M230 680 c0 -6 12 -22 26 -35 19 -18 25 -31 22 -57 -3 -29 -10 -37
-58 -63 l-55 -29 35 -6 c20 -3 42 -10 50 -15 13 -8 13 -6 2 8 -12 14 -9 20 19
45 44 39 46 89 4 132 -30 31 -45 38 -45 20z"/>
<path d="M348 684 c-23 -23 4 -112 52 -172 29 -37 38 -42 74 -42 l41 1 -37 19
c-35 19 -94 70 -81 70 4 0 -1 6 -11 13 -11 8 -20 33 -24 66 -4 29 -10 49 -14
45z"/>
<path d="M2900 540 c0 -60 -1 -113 -2 -117 -2 -5 7 -9 20 -11 22 -3 22 -2 22
117 0 114 -1 121 -20 121 -19 0 -20 -7 -20 -110z"/>
<path d="M70 595 c0 -8 -4 -15 -10 -15 -5 0 -10 -7 -10 -15 0 -8 5 -15 10 -15
6 0 10 -27 10 -60 0 -48 4 -61 19 -70 43 -22 91 -1 91 41 0 26 -36 25 -43 -2
-10 -37 -27 -10 -27 42 0 48 1 49 30 49 20 0 30 5 30 15 0 10 -10 15 -30 15
-20 0 -30 5 -30 15 0 8 -9 15 -20 15 -11 0 -20 -7 -20 -15z"/>
<path d="M1525 589 c-4 -5 -3 -9 2 -9 4 0 1 -5 -7 -10 -13 -8 -13 -10 1 -10 9
0 30 -7 48 -16 35 -18 51 -12 36 12 -13 21 -73 46 -80 33z"/>
<path d="M609 536 c-4 -127 -5 -121 16 -121 17 0 21 8 25 65 4 51 9 66 23 68
12 2 17 -3 17 -17 0 -14 6 -21 18 -21 10 0 23 -5 28 -10 14 -14 56 -22 49 -9
-9 14 12 11 45 -6 18 -9 31 -11 35 -5 3 6 23 11 43 11 27 1 20 4 -28 11 -36 5
-84 9 -107 8 -39 -1 -43 1 -43 23 0 34 -18 45 -72 45 l-48 -1 -1 -41z"/>
<path d="M1176 564 c-9 -8 -16 -20 -16 -25 0 -13 34 -11 47 2 18 18 58 7 61
-19 3 -19 0 -21 -20 -14 -13 5 -36 6 -53 3 -26 -5 -30 -11 -33 -44 -3 -31 0
-38 20 -46 13 -5 46 -8 74 -6 l49 3 0 65 c0 39 -5 70 -14 80 -18 22 -94 23
-115 1z m89 -84 c10 -17 -16 -41 -39 -38 -13 2 -22 12 -24 26 -3 19 1 22 27
22 16 0 33 -5 36 -10z"/>
<path d="M1730 577 c0 -2 9 -30 20 -62 11 -32 20 -66 20 -75 0 -13 10 -19 35
-22 l34 -4 21 68 c11 37 23 74 26 83 5 11 -1 15 -19 15 -23 0 -26 -6 -38 -65
-7 -36 -16 -65 -19 -65 -4 0 -13 28 -21 63 -12 51 -18 63 -37 65 -12 2 -22 2
-22 -1z"/>
<path d="M2326 564 c-11 -10 -16 -34 -16 -73 0 -52 2 -59 25 -69 39 -18 83
-14 105 8 25 25 25 40 1 40 -11 0 -23 -4 -26 -10 -6 -9 -65 -15 -65 -6 0 2 -3
11 -6 20 -5 14 3 16 56 16 l63 0 -7 33 c-3 17 -14 38 -23 45 -24 17 -88 15
-107 -4z m92 -36 c3 -14 -4 -18 -31 -18 -39 0 -48 6 -40 27 8 21 67 13 71 -9z"/>
<path d="M1914 485 c15 -23 15 -26 1 -30 -49 -16 -40 -20 55 -25 58 -3 109 -2
115 2 5 5 -4 8 -20 8 -36 0 -105 30 -124 53 -7 10 -20 17 -28 17 -13 0 -13 -4
1 -25z"/>
<path d="M324 485 c27 -21 53 -20 36 0 -7 8 -22 15 -34 15 -21 -1 -21 -1 -2
-15z"/>
<path d="M785 461 c-6 -6 -34 -11 -63 -13 -29 -2 -53 -7 -55 -13 -1 -6 84 -11
236 -13 130 -1 237 1 237 5 0 23 -44 34 -106 28 -43 -5 -69 -4 -78 4 -9 8 -22
8 -39 2 -25 -10 -80 -8 -107 3 -9 4 -20 2 -25 -3z"/>
<path d="M206 444 c-3 -9 -6 -18 -6 -20 0 -2 88 -4 195 -4 167 0 195 2 195 15
0 13 -22 15 -137 16 -76 1 -161 3 -189 5 -41 3 -53 1 -58 -12z"/>
<path d="M2105 440 c-4 -6 14 -10 47 -10 38 0 49 3 38 10 -20 13 -77 13 -85 0z"/>
<path d="M73 297 c-3 -5 -2 -19 1 -31 3 -13 -7 -59 -23 -109 -33 -97 -33 -97
49 -97 35 0 50 4 54 17 8 21 -8 31 -40 25 -27 -5 -28 -3 -14 32 8 21 16 26 44
26 26 0 35 5 39 21 6 22 -13 35 -38 25 -10 -3 -15 1 -15 12 0 31 16 44 51 40
29 -2 34 0 37 20 2 13 -2 23 -10 24 -45 5 -131 2 -135 -5z"/>
<path d="M784 220 c-26 -51 -58 -105 -71 -120 l-23 -28 27 -7 c23 -5 32 -1 53
24 32 40 64 43 50 6 -8 -22 -7 -27 13 -34 30 -12 57 3 50 29 -3 11 -2 28 2 37
5 10 7 25 6 34 -1 9 6 38 14 64 19 55 11 70 -42 81 -31 6 -32 5 -79 -86z m106
41 c0 -5 -5 -22 -11 -38 -8 -21 -12 -24 -19 -13 -7 11 -10 7 -15 -13 -4 -15
-16 -32 -27 -38 -17 -9 -15 -2 12 50 18 34 39 61 46 61 8 0 14 -4 14 -9z m-27
-134 c-5 -28 -6 -28 -20 -7 -12 17 -12 24 -2 36 17 20 29 5 22 -29z"/>
<path d="M986 298 c-9 -5 -16 -16 -16 -25 0 -9 -11 -44 -24 -77 -40 -99 -52
-156 -35 -167 27 -17 47 -9 69 26 12 19 24 50 27 70 3 19 10 35 14 35 16 0 10
29 -8 38 -15 9 -15 13 5 46 12 21 22 41 22 45 0 13 -36 19 -54 9z m7 -145 c-7
-42 -32 -108 -38 -101 -2 2 2 27 9 56 9 34 11 52 4 52 -6 0 -5 6 2 15 21 25
29 17 23 -22z"/>
<path d="M1790 299 c-41 -17 -60 -40 -60 -75 0 -25 8 -39 36 -63 24 -19 35
-35 31 -45 -9 -22 -54 -20 -61 2 -9 27 -35 23 -43 -6 -13 -53 81 -73 131 -27
38 35 35 73 -10 111 -33 27 -35 33 -25 52 14 27 31 29 31 3 0 -25 14 -34 40
-26 28 9 29 75 1 75 -11 0 -25 2 -33 4 -7 3 -24 0 -38 -5z"/>
<path d="M2595 288 c-16 -24 -65 -168 -65 -193 0 -19 36 -38 59 -30 26 8 54
42 46 55 -5 8 -13 6 -26 -6 -30 -27 -36 -7 -7 24 69 73 88 145 42 162 -33 13
-30 14 -49 -12z m32 -81 c-14 -24 -34 -50 -43 -58 -11 -9 -7 1 9 26 14 22 29
53 33 68 4 19 10 25 17 18 6 -6 1 -24 -16 -54z"/>
<path d="M520 235 c-12 -25 -23 -51 -24 -57 -1 -7 -8 -30 -15 -51 -7 -21 -10
-44 -7 -52 8 -21 60 -19 79 3 23 25 21 35 -4 29 -18 -5 -20 -2 -15 16 3 12 6
25 6 30 0 4 6 7 14 7 17 0 30 31 17 40 -6 3 -3 18 9 37 16 27 17 32 4 37 -31
12 -43 5 -64 -39z"/>
<path d="M1213 264 c-7 -18 14 -35 37 -31 8 1 16 12 18 25 3 18 -1 22 -23 22
-14 0 -28 -7 -32 -16z"/>
<path d="M2327 273 c-14 -13 -6 -31 15 -37 25 -6 54 16 44 33 -8 12 -49 15
-59 4z"/>
<path d="M2707 273 c-21 -20 8 -48 38 -37 25 10 18 44 -8 44 -13 0 -27 -3 -30
-7z"/>
<path d="M2930 254 c-6 -14 -10 -30 -10 -35 0 -5 -4 -9 -10 -9 -5 0 -10 -8
-10 -17 0 -10 -7 -36 -16 -60 -20 -52 -13 -73 24 -73 25 0 72 34 72 52 0 8
-21 5 -37 -5 -8 -5 -13 -3 -13 3 0 20 20 50 33 50 7 0 13 9 14 20 1 11 -3 20
-8 20 -6 0 -1 15 10 34 19 30 19 34 5 40 -30 11 -44 6 -54 -20z"/>
<path d="M1906 228 c-48 -149 -62 -208 -53 -217 20 -20 35 -11 47 25 7 19 14
33 17 30 10 -10 44 15 63 47 27 44 27 87 0 87 -14 0 -20 6 -18 18 4 21 -50 31
-56 10z m64 -75 c0 -27 -41 -73 -65 -73 -8 0 -15 7 -15 15 0 23 29 88 43 97
17 10 37 -11 37 -39z"/>
<path d="M1915 146 c-18 -41 -19 -56 -5 -56 6 0 10 6 10 13 0 6 7 24 14 39 9
17 11 30 5 34 -5 3 -16 -10 -24 -30z"/>
<path d="M1054 193 c-4 -21 -14 -51 -22 -68 -14 -28 -14 -29 2 -16 14 12 16
12 10 -4 -5 -13 -4 -16 4 -11 7 4 12 1 12 -8 0 -23 38 -30 65 -12 30 20 33 36
5 31 -25 -5 -25 -3 0 46 21 41 20 59 -6 59 -8 0 -14 5 -14 10 0 6 -11 10 -25
10 -20 0 -25 -6 -31 -37z m56 -17 c0 -8 -4 -26 -10 -40 -12 -33 -35 -35 -25
-3 4 12 7 30 6 40 0 9 7 17 15 17 8 0 14 -6 14 -14z"/>
<path d="M247 209 c-29 -17 -62 -94 -58 -135 2 -17 37 -24 51 -10 6 6 23 11
38 12 15 0 35 4 45 8 12 6 17 4 17 -7 0 -21 34 -31 59 -17 35 18 51 52 51 108
0 52 -1 53 -27 50 -20 -2 -32 -14 -50 -47 -28 -54 -25 -51 -52 -56 l-21 -4 20
39 c25 48 25 47 -2 53 -13 2 -30 7 -38 10 -8 4 -23 2 -33 -4z m53 -36 c0 -24
-27 -72 -43 -77 -16 -4 -18 -1 -12 22 4 15 14 35 22 45 16 17 33 23 33 10z
m130 -26 c0 -13 -11 -34 -24 -47 l-25 -23 2 24 c5 53 47 94 47 46z"/>
<path d="M1203 211 c-9 -6 -43 -95 -43 -112 0 -5 9 -13 21 -19 16 -9 26 -8 45
5 22 14 36 44 15 30 -18 -11 -22 15 -6 44 8 17 15 34 15 39 0 12 -35 22 -47
13z"/>
<path d="M1318 213 c-20 -5 -58 -83 -58 -118 0 -51 82 -47 110 4 12 23 -8 24
-34 2 -21 -18 -30 -8 -22 24 5 21 11 24 30 19 20 -5 25 0 34 26 10 28 9 32
-14 40 -14 6 -26 9 -27 9 -1 -1 -10 -3 -19 -6z"/>
<path d="M1426 190 c-14 -17 -31 -50 -37 -72 -9 -37 -9 -44 7 -55 15 -11 21
-10 40 1 12 8 30 13 40 10 11 -3 29 4 42 16 25 24 31 50 7 30 -23 -19 -28 -6
-11 29 22 41 21 45 -17 59 -44 16 -41 16 -71 -18z m65 -23 c-2 -30 -16 -59
-33 -68 -11 -6 -21 -9 -23 -7 -8 8 36 89 46 86 6 -2 10 -7 10 -11z"/>
<path d="M2063 205 c-29 -20 -59 -111 -44 -129 20 -24 50 -25 83 -3 28 20 56
59 30 43 -17 -10 -23 11 -7 24 20 17 19 66 -1 74 -24 9 -38 7 -61 -9z m48 -54
c-7 -12 -16 -21 -21 -21 -6 0 -10 -4 -10 -10 0 -5 8 -6 18 -3 15 6 15 5 3 -10
-16 -21 -31 -22 -31 -3 0 8 -6 17 -12 19 -8 4 -7 6 3 6 9 1 22 15 29 32 8 19
16 27 22 21 6 -6 6 -18 -1 -31z"/>
<path d="M2209 213 c-19 -5 -59 -85 -59 -119 0 -50 82 -46 110 5 12 23 -8 24
-34 2 -21 -18 -30 -8 -22 24 5 21 11 25 28 19 13 -4 24 -1 29 7 12 19 11 59 0
59 -5 0 -15 2 -23 4 -7 2 -20 2 -29 -1z"/>
<path d="M2300 178 c-26 -58 -26 -95 1 -103 13 -4 27 0 40 11 19 17 27 40 10
29 -19 -11 -20 13 -2 49 18 35 18 37 1 46 -28 15 -29 14 -50 -32z"/>
<path d="M2415 195 c-24 -26 -45 -81 -45 -116 0 -23 37 -31 55 -12 9 8 23 12
32 9 9 -4 26 1 39 9 26 17 33 38 9 29 -19 -8 -19 13 0 46 19 34 19 37 -7 43
-13 2 -31 8 -40 12 -12 5 -25 -2 -43 -20z m55 -59 c-6 -20 -13 -36 -15 -36 -2
0 -10 -3 -19 -6 -12 -5 -14 -1 -7 23 12 43 34 74 44 64 5 -5 4 -24 -3 -45z"/>
<path d="M2693 211 c-9 -6 -43 -95 -43 -112 0 -18 40 -30 61 -18 17 9 23 7 36
-10 19 -28 35 -26 72 5 28 23 31 31 31 85 0 56 -1 59 -25 59 -19 0 -30 -10
-49 -49 -36 -71 -86 -86 -53 -16 9 20 17 40 17 44 0 11 -35 20 -47 12z m137
-70 c0 -10 -12 -28 -26 -42 l-25 -24 5 27 c10 58 46 88 46 39z"/>
<path d="M613 159 c-25 -26 -15 -39 31 -39 31 0 46 5 50 16 8 21 5 24 -35 30
-21 3 -39 1 -46 -7z"/>
</g>
</svg>
