<?xml version="1.0" standalone="no"?>
<!DOCTYPE svg PUBLIC "-//W3C//DTD SVG 20010904//EN"
 "http://www.w3.org/TR/2001/REC-SVG-20010904/DTD/svg10.dtd">
<svg version="1.0" xmlns="http://www.w3.org/2000/svg"
 width="522.000000pt" height="403.000000pt" viewBox="0 0 522.000000 403.000000"
 preserveAspectRatio="xMidYMid meet">

<g transform="translate(0.000000,403.000000) scale(0.100000,-0.100000)"
fill="#000000" stroke="none">
<path d="M380 2314 c-133 -21 -220 -46 -322 -91 l-58 -26 0 -103 c0 -57 2
-104 5 -104 2 0 26 14 52 30 46 29 73 38 73 23 0 -5 -7 -147 -16 -318 -17
-343 -19 -435 -10 -462 7 -22 81 -50 140 -55 37 -3 40 -1 48 29 10 39 15 40
76 12 102 -47 245 6 331 123 l35 46 23 -56 c26 -66 56 -93 125 -116 62 -20 81
-20 117 -2 27 15 80 69 98 101 8 14 15 14 56 3 43 -11 48 -16 58 -50 6 -26 15
-38 27 -38 10 0 22 -4 28 -9 5 -4 30 -14 56 -21 63 -17 74 -7 80 74 6 71 56
196 57 143 1 -16 11 -51 22 -78 18 -41 30 -54 70 -75 27 -13 61 -24 77 -24 26
0 101 44 116 69 4 5 30 -2 64 -20 68 -34 96 -36 141 -8 18 11 35 18 37 16 2
-2 5 -51 6 -110 4 -131 -4 -143 -60 -98 -22 17 -43 43 -46 57 -5 20 -12 25
-26 21 -11 -3 -20 -1 -20 4 0 14 -27 11 -43 -5 -22 -23 -7 -110 26 -144 27
-29 105 -62 143 -62 12 0 51 23 87 51 50 38 73 65 94 108 l28 56 -3 251 c-2
196 0 266 12 324 11 52 13 77 5 86 -15 19 -106 47 -121 38 -22 -14 -98 -13
-139 1 -47 17 -72 10 -111 -31 -48 -52 -82 -170 -94 -329 -7 -94 -21 -125 -55
-125 -25 0 -33 37 -26 124 6 65 44 244 62 288 10 25 -45 75 -97 89 -36 9 -44
8 -79 -16 -40 -28 -43 -34 -54 -100 -9 -53 -54 -187 -67 -200 -7 -7 -9 -4 -5
10 3 11 8 47 12 80 4 33 11 68 17 78 12 24 -7 74 -33 88 -11 5 -48 11 -84 13
-57 3 -67 1 -80 -17 -8 -11 -12 -24 -9 -29 3 -4 0 -85 -6 -180 -11 -180 -19
-208 -62 -208 -22 0 -23 22 -3 105 17 70 19 194 5 247 -16 55 -51 91 -110 112
-43 15 -56 17 -78 6 -15 -7 -56 -14 -91 -17 -36 -2 -68 -6 -71 -8 -4 -3 -17
-49 -29 -102 -33 -147 -30 -140 -52 -104 -10 17 -46 49 -79 70 l-61 38 55 47
c92 79 118 143 96 236 -12 50 -30 74 -129 177 -46 47 -155 79 -231 67z m178
-166 c7 -7 12 -33 12 -58 0 -51 -33 -111 -80 -148 -39 -30 -143 -82 -164 -82
-17 0 -18 6 -12 68 4 37 14 81 22 97 15 29 14 31 -16 56 l-32 27 64 20 c100
33 185 41 206 20z m1437 -420 c-10 -95 -40 -238 -60 -283 -17 -39 -17 -39 -28
-17 -14 30 4 206 28 272 37 105 70 121 60 28z m-1460 -70 c61 -72 -3 -217
-121 -273 -32 -15 -37 -15 -73 1 -36 16 -39 20 -45 67 -3 28 -3 90 1 139 l6
88 31 5 c111 18 170 10 201 -27z m445 -130 c35 -105 33 -134 -10 -173 -17 -15
-18 -14 -29 16 -12 35 -15 161 -5 222 4 21 8 36 9 35 2 -2 18 -47 35 -100z"/>
<path d="M3370 2297 c-11 -26 -45 -164 -55 -222 -9 -59 -103 -440 -124 -510
-21 -66 -48 -126 -86 -194 -14 -24 -25 -53 -25 -63 0 -20 38 -41 80 -44 14 -1
42 -5 62 -9 32 -6 40 -4 62 20 14 15 39 68 56 119 17 51 36 100 43 108 9 12
38 17 104 21 l93 4 5 -31 c16 -95 22 -152 18 -163 -9 -23 27 -64 73 -84 58
-24 80 -24 139 2 47 21 47 21 68 1 12 -11 39 -26 60 -33 35 -12 41 -11 81 11
115 63 165 114 187 195 l12 40 11 -30 c21 -57 36 -74 93 -100 66 -32 107 -29
158 10 l34 25 21 -30 c24 -34 97 -75 153 -85 49 -10 114 23 167 82 37 42 42
45 58 31 30 -27 100 -58 129 -58 66 0 153 92 153 162 0 40 -13 50 -28 22 -8
-14 -10 -12 -17 12 l-7 29 -18 -36 c-26 -49 -48 -67 -61 -48 -18 25 -4 236 20
306 27 80 27 84 -7 116 -40 39 -86 50 -144 35 -46 -11 -47 -13 -46 -47 1 -20
-4 -76 -10 -126 -7 -49 -12 -115 -12 -145 0 -47 -6 -64 -36 -108 -34 -51 -84
-92 -112 -92 -17 0 -42 61 -42 104 0 25 12 53 44 98 55 79 98 165 128 254 18
56 22 90 22 180 0 101 -3 117 -28 168 -30 61 -48 74 -135 100 -60 18 -117 9
-142 -20 -7 -9 -24 -75 -37 -147 -19 -105 -25 -180 -29 -367 -5 -227 -6 -236
-30 -278 -13 -24 -30 -41 -36 -39 -34 11 -27 200 12 327 14 44 17 69 10 81
-12 23 -57 55 -91 63 -26 6 -117 -12 -118 -24 -1 -3 -2 -27 -4 -55 -9 -140
-18 -251 -22 -263 -9 -30 -66 107 -91 220 -21 97 -29 118 -44 118 -10 0 -21 5
-24 10 -11 18 -93 11 -135 -11 -38 -20 -40 -23 -40 -69 0 -26 -11 -90 -26
-141 -14 -52 -31 -120 -38 -152 -16 -66 -23 -78 -36 -57 -17 27 -11 74 10 88
28 17 25 36 -12 78 l-33 37 0 191 c0 105 3 212 7 238 l8 48 -64 52 c-77 64
-138 87 -246 93 -76 5 -81 4 -90 -18z m174 -123 c14 -13 16 -48 16 -228 0
-151 -3 -215 -12 -224 -7 -7 -36 -12 -65 -12 -63 0 -62 -9 -28 155 14 66 32
158 40 204 15 85 24 121 30 121 2 0 11 -7 19 -16z m1193 -179 c-5 -104 -27
-208 -46 -220 -14 -8 4 221 26 345 12 70 25 -10 20 -125z m-723 -453 c31 -100
33 -151 7 -183 -16 -20 -23 -22 -38 -13 -15 10 -18 23 -15 79 2 64 1 67 -18
62 -14 -4 -20 0 -20 11 0 27 44 142 51 134 4 -4 19 -44 33 -90z"/>
<path d="M4271 2187 c-18 -23 -25 -90 -12 -116 15 -27 82 -61 121 -61 45 0 67
15 80 55 13 40 -5 91 -42 114 -34 21 -131 27 -147 8z"/>
<path d="M4917 2185 c-44 -43 -22 -129 39 -158 52 -25 100 -22 131 9 21 21 25
32 20 66 -3 22 -13 48 -23 59 -33 36 -140 52 -167 24z"/>
<path d="M2446 1905 c-15 -8 -54 -15 -86 -15 -37 0 -64 -5 -73 -14 -7 -8 -27
-67 -42 -133 -24 -96 -29 -141 -30 -243 0 -153 15 -190 92 -232 109 -59 180
-41 258 66 18 25 22 26 52 16 40 -14 96 1 118 33 8 12 15 42 15 67 l-1 45 -19
-24 -20 -23 0 26 c0 34 -11 33 -38 -4 -24 -32 -62 -41 -62 -14 0 9 9 62 21
117 24 117 20 187 -13 256 -17 36 -31 48 -75 67 -63 28 -60 28 -97 9z m-10
-330 c8 -32 23 -78 33 -101 19 -42 19 -43 -1 -82 -20 -42 -43 -59 -54 -41 -12
19 -17 135 -9 214 4 42 9 75 11 72 2 -2 11 -30 20 -62z"/>
<path d="M5040 926 c0 -113 4 -197 10 -201 5 -3 21 -3 35 1 l25 6 0 194 0 194
-35 0 -35 0 0 -194z"/>
<path d="M127 1053 c-4 -3 -7 -17 -7 -30 0 -14 -6 -23 -15 -23 -23 0 -19 -47
5 -53 18 -5 20 -14 20 -100 0 -64 4 -98 13 -105 34 -28 122 -26 152 4 14 15
21 75 10 86 -3 3 -17 3 -30 0 -18 -3 -25 -11 -25 -27 0 -25 -21 -38 -45 -29
-12 5 -15 25 -15 90 l0 83 53 3 c44 3 52 6 52 23 0 17 -8 20 -52 23 -51 3 -53
4 -53 33 0 25 -4 29 -28 29 -16 0 -32 -3 -35 -7z"/>
<path d="M3196 957 c-8 -29 -20 -76 -26 -105 -7 -28 -15 -54 -19 -57 -5 -2
-21 42 -37 98 -29 101 -30 102 -62 105 -18 2 -32 0 -32 -5 0 -4 18 -64 38
-133 l38 -125 49 -3 c26 -2 52 1 57 6 12 12 79 244 74 258 -2 6 -18 11 -35 12
-28 1 -31 -3 -45 -51z"/>
<path d="M1058 933 c-1 -38 -2 -99 -2 -138 l-1 -70 35 0 35 0 -2 95 c-1 110 7
133 45 128 21 -2 28 -9 30 -30 3 -25 8 -28 38 -28 32 0 34 2 34 33 0 52 -24
77 -74 77 -23 0 -48 -6 -55 -12 -11 -10 -14 -10 -18 0 -3 6 -18 12 -34 12
l-29 0 -2 -67z"/>
<path d="M2052 984 c-12 -8 -22 -26 -22 -40 0 -20 5 -24 28 -24 17 0 32 8 40
21 10 16 21 19 54 17 35 -3 43 -7 51 -31 11 -35 2 -66 -15 -49 -7 7 -38 12
-70 12 -49 0 -63 -4 -83 -25 -30 -30 -33 -83 -6 -116 19 -24 57 -28 191 -18
64 5 60 -4 50 138 -9 120 -19 131 -124 131 -49 0 -79 -5 -94 -16z m132 -140
c19 -7 21 -45 4 -62 -7 -7 -29 -12 -50 -12 -31 0 -41 5 -50 25 -8 19 -8 28 2
40 13 15 65 20 94 9z"/>
<path d="M4045 975 c-17 -16 -26 -37 -27 -62 -3 -61 3 -137 13 -155 24 -45
187 -51 221 -8 28 35 23 60 -12 60 -16 0 -33 -6 -37 -14 -4 -7 -27 -16 -50
-20 -48 -7 -73 10 -73 50 0 24 1 24 95 24 l95 0 0 34 c0 46 -18 94 -40 106
-10 6 -51 10 -90 10 -62 0 -74 -3 -95 -25z m157 -37 c20 -31 4 -43 -60 -46
-54 -3 -62 -1 -62 15 0 22 11 38 30 46 23 9 82 -1 92 -15z"/>
<path d="M130 509 c-6 -9 -4 -25 4 -40 11 -23 7 -42 -36 -174 -26 -81 -48
-154 -48 -161 0 -15 33 -23 120 -29 74 -5 86 0 95 36 7 29 -10 39 -74 39 -30
0 -33 2 -27 25 19 75 30 83 111 77 15 -2 24 7 33 30 6 17 10 34 7 36 -2 2 -24
7 -50 9 -50 6 -51 9 -31 58 15 36 32 42 107 36 22 -2 27 3 33 30 3 18 3 35 0
38 -3 3 -58 6 -121 6 -94 0 -116 -3 -123 -16z"/>
<path d="M1444 519 c-6 -8 -44 -76 -84 -152 -40 -77 -88 -159 -106 -183 -19
-24 -34 -46 -34 -48 0 -3 17 -10 37 -17 40 -13 34 -17 108 75 15 19 26 24 47
20 24 -6 26 -10 21 -38 -3 -17 -6 -35 -7 -40 -2 -19 53 -38 81 -29 25 9 27 13
24 61 -1 28 1 57 6 64 4 7 9 31 9 53 1 22 14 74 28 115 l26 75 -23 23 c-28 28
-117 42 -133 21z m27 -160 c-12 -42 -23 -65 -34 -67 -10 -2 -17 2 -17 8 0 14
61 132 66 127 2 -2 -5 -32 -15 -68z"/>
<path d="M1727 518 c-10 -8 -30 -47 -43 -88 -14 -41 -32 -82 -40 -91 -8 -8
-14 -23 -14 -33 0 -9 -5 -26 -10 -37 -23 -43 -49 -169 -40 -193 13 -36 65 -44
94 -17 33 31 75 119 81 171 3 25 10 47 15 48 16 6 12 62 -4 62 -8 0 -17 4 -21
9 -5 10 33 101 57 133 22 31 -41 61 -75 36z"/>
<path d="M3112 518 c-18 -6 -48 -28 -67 -50 -28 -31 -35 -46 -35 -80 0 -39 5
-47 60 -99 63 -58 71 -77 44 -103 -26 -27 -72 -20 -92 13 -17 31 -47 37 -69
15 -34 -33 2 -83 74 -105 36 -10 49 -9 87 5 61 23 106 76 106 123 0 30 -8 44
-60 93 -33 32 -60 64 -60 72 0 9 9 27 21 42 25 31 53 36 44 6 -14 -43 29 -73
79 -54 21 8 23 109 2 117 -32 12 -103 15 -134 5z"/>
<path d="M4533 513 c-38 -34 -123 -268 -123 -339 0 -37 14 -51 58 -60 35 -7
68 9 109 54 27 29 33 63 8 42 -12 -10 -15 -10 -15 0 0 6 -14 0 -31 -14 -55
-46 -61 -9 -9 49 53 58 91 119 106 172 20 68 12 90 -34 103 -48 13 -46 13 -69
-7z"/>
<path d="M2118 465 c-11 -24 -10 -29 7 -41 30 -22 64 -17 77 11 14 30 6 40
-39 50 -29 6 -34 3 -45 -20z"/>
<path d="M4062 478 c-20 -20 -15 -55 11 -62 12 -3 27 -6 34 -6 12 0 43 27 43
38 -1 29 -67 51 -88 30z"/>
<path d="M4715 474 c-22 -23 -15 -47 18 -58 34 -12 61 1 65 33 3 15 -4 24 -23
31 -35 13 -41 13 -60 -6z"/>
<path d="M936 459 c-9 -13 -16 -29 -16 -35 0 -6 -11 -28 -25 -48 -14 -20 -28
-49 -31 -64 -3 -15 -15 -51 -25 -80 -10 -29 -19 -63 -19 -76 0 -55 75 -67 134
-22 36 27 51 64 21 52 -8 -3 -15 0 -15 6 0 6 -9 3 -20 -7 -28 -26 -31 -17 -12
40 13 38 23 51 42 55 14 3 25 10 25 15 0 6 4 16 9 24 6 9 3 18 -8 27 -17 12
-16 16 10 63 15 28 25 54 22 56 -3 3 -21 8 -40 12 -29 4 -38 1 -52 -18z"/>
<path d="M5119 468 c-8 -7 -22 -32 -29 -56 -7 -23 -19 -47 -26 -53 -7 -6 -16
-25 -19 -42 -4 -18 -15 -56 -26 -85 -10 -29 -19 -66 -19 -82 0 -25 5 -31 40
-41 38 -12 43 -11 83 17 26 18 43 39 45 54 3 21 2 22 -12 11 -13 -11 -16 -11
-16 -1 0 9 -7 7 -20 -5 -29 -26 -33 -14 -13 41 13 34 25 50 41 54 13 3 22 7
21 10 -1 3 3 15 10 28 10 18 9 23 -4 28 -21 9 -19 26 11 69 14 21 21 42 17 46
-16 16 -68 21 -84 7z"/>
<path d="M3316 378 c-13 -31 -57 -171 -90 -284 -13 -46 -13 -54 0 -73 9 -12
25 -21 38 -21 19 0 24 9 37 57 14 56 16 58 54 64 50 8 90 54 111 127 20 69 13
98 -25 105 -21 4 -30 13 -33 29 -2 19 -10 24 -41 26 -34 3 -39 0 -51 -30z"/>
<path d="M1844 365 c-7 -19 -14 -46 -14 -60 0 -14 -9 -43 -20 -65 -24 -47 -25
-57 -5 -40 13 10 15 9 15 -9 0 -12 5 -19 10 -16 6 3 10 -1 10 -9 0 -20 26 -45
56 -52 17 -4 34 1 59 20 34 26 47 50 23 41 -7 -3 -19 -1 -27 4 -12 8 -12 16 4
58 10 26 25 56 33 66 20 22 6 50 -27 55 -11 2 -26 12 -31 23 -7 12 -21 19 -41
19 -25 0 -33 -6 -45 -35z"/>
<path d="M443 365 c-39 -17 -70 -61 -98 -142 -27 -75 -22 -102 19 -116 20 -7
33 -4 54 10 15 10 45 18 67 19 22 0 57 8 78 17 l37 17 0 -30 c0 -24 6 -33 26
-40 21 -8 35 -5 73 16 67 36 81 64 81 167 l0 85 -30 7 c-43 10 -60 -5 -106
-92 -22 -43 -43 -76 -46 -73 -3 3 -16 -4 -27 -14 -21 -19 -21 -19 -15 -1 6 15
4 17 -9 12 -22 -8 -22 -9 8 55 28 59 31 78 13 78 -7 0 -24 6 -38 13 -45 24
-56 25 -87 12z m17 -113 c0 -5 -7 -17 -15 -28 -14 -18 -14 -17 -4 9 12 27 19
34 19 19z m220 -79 c-10 -16 -10 -15 -5 5 4 14 2 22 -6 22 -8 0 -7 5 2 17 13
15 14 15 17 -5 2 -12 -2 -29 -8 -39z"/>
<path d="M2517 361 c-45 -23 -109 -147 -105 -205 3 -36 6 -41 36 -50 27 -8 36
-6 56 13 19 18 31 21 57 16 40 -7 101 27 108 60 3 20 3 20 -18 1 -21 -19 -21
-19 -15 -1 6 15 4 17 -9 12 -22 -8 -22 -8 12 63 l30 61 -25 9 c-14 6 -30 10
-35 10 -5 0 -9 4 -9 9 0 17 -51 18 -83 2z m18 -120 c-21 -43 -29 -39 -8 4 9
19 18 33 21 31 2 -2 -4 -18 -13 -35z"/>
<path d="M3607 369 c-31 -12 -65 -71 -90 -156 -15 -49 -15 -53 4 -77 29 -37
70 -42 125 -14 43 21 74 51 74 71 0 5 -7 7 -15 3 -8 -3 -15 -1 -15 4 0 5 -16
-2 -36 -15 -44 -30 -54 -31 -54 -5 0 14 7 20 24 20 44 0 106 69 106 118 0 45
-65 72 -123 51z"/>
<path d="M4880 371 c-9 -6 -33 -44 -55 -86 -27 -54 -46 -80 -64 -87 -17 -6
-27 -6 -29 1 -2 6 -8 8 -14 5 -14 -9 -2 30 28 90 29 59 20 79 -34 74 -35 -3
-36 -5 -64 -82 -35 -96 -34 -126 7 -145 26 -12 33 -12 58 2 30 18 68 23 66 10
-8 -52 34 -72 89 -44 74 38 87 61 90 167 3 74 1 94 -10 94 -7 0 -22 2 -33 5
-11 3 -27 1 -35 -4z m-14 -186 c-4 -14 -11 -25 -17 -25 -7 0 -6 6 2 17 11 13
11 17 1 21 -10 3 -10 7 0 19 15 19 23 2 14 -32z"/>
<path d="M2077 348 c-3 -13 -17 -57 -32 -98 l-27 -74 26 -23 c36 -30 59 -29
98 6 32 28 34 57 3 31 -13 -11 -14 -10 -9 5 5 13 4 16 -4 11 -20 -12 -13 18
18 80 34 68 28 84 -30 84 -31 0 -39 -4 -43 -22z"/>
<path d="M2271 351 c-24 -24 -71 -124 -78 -167 -7 -41 14 -70 57 -79 31 -7 79
13 118 48 25 23 33 58 8 38 -11 -9 -15 -9 -18 1 -3 9 -13 6 -33 -10 -15 -12
-32 -22 -36 -22 -12 0 -11 31 2 68 9 27 14 30 34 22 41 -15 60 -3 72 48 10 40
9 49 -5 60 -25 19 -99 15 -121 -7z"/>
<path d="M3827 359 c-18 -11 -60 -87 -83 -151 -17 -50 -3 -83 42 -98 25 -9 40
-8 68 4 36 15 86 58 86 74 0 14 -44 8 -70 -10 -13 -10 -28 -18 -32 -18 -12 0
-10 45 3 74 9 19 16 23 33 17 11 -4 29 -6 38 -3 22 4 44 80 30 102 -11 18 -89
25 -115 9z"/>
<path d="M3991 281 c-36 -96 -35 -121 5 -139 38 -18 53 -15 85 17 34 34 40 64
7 35 -18 -16 -21 -17 -15 -2 3 9 1 19 -6 21 -8 2 -3 23 17 64 35 74 31 93 -22
93 l-38 0 -33 -89z"/>
<path d="M4215 348 c-30 -23 -81 -122 -91 -176 -11 -59 47 -90 97 -53 20 15
36 19 58 15 23 -5 40 0 66 17 19 13 35 30 35 38 0 11 -3 11 -15 1 -12 -10 -15
-9 -15 4 0 10 -4 14 -10 11 -17 -10 -11 13 15 65 30 59 31 70 7 70 -10 0 -27
7 -38 15 -28 21 -77 18 -109 -7z m38 -103 c-9 -19 -18 -33 -21 -31 -4 5 26 66
33 66 3 0 -3 -16 -12 -35z"/>
<path d="M1052 255 c-15 -33 7 -45 82 -45 46 0 57 4 66 21 21 38 6 49 -68 49
-64 0 -70 -2 -80 -25z"/>
</g>
</svg>
